ISO-10303-21;
HEADER;
FILE_DESCRIPTION(('FreeCAD Model'),'2;1');
FILE_NAME('Open CASCADE Shape Model','2026-09-26T21:45:07',('FreeCAD'),(
    'FreeCAD'),'Open CASCADE STEP processor 7.8','FreeCAD','Unknown');
FILE_SCHEMA(('AUTOMOTIVE_DESIGN { 1 0 10303 214 1 1 1 1 }'));
ENDSEC;
DATA;
#1 = APPLICATION_PROTOCOL_DEFINITION('international standard',
  'automotive_design',2000,#2);
#2 = APPLICATION_CONTEXT(
  'core data for automotive mechanical design processes');
#3 = SHAPE_DEFINITION_REPRESENTATION(#4,#10);
#4 = PRODUCT_DEFINITION_SHAPE('','',#5);
#5 = PRODUCT_DEFINITION('design','',#6,#9);
#6 = PRODUCT_DEFINITION_FORMATION('','',#7);
#7 = PRODUCT('Open CASCADE STEP translator 7.8 12',
  'Open CASCADE STEP translator 7.8 12','',(#8));
#8 = PRODUCT_CONTEXT('',#2,'mechanical');
#9 = PRODUCT_DEFINITION_CONTEXT('part definition',#2,'design');
#10 = ADVANCED_BREP_SHAPE_REPRESENTATION('',(#11,#15),#666);
#11 = AXIS2_PLACEMENT_3D('',#12,#13,#14);
#12 = CARTESIAN_POINT('',(0.,0.,0.));
#13 = DIRECTION('',(0.,0.,1.));
#14 = DIRECTION('',(1.,0.,-0.));
#15 = MANIFOLD_SOLID_BREP('',#16);
#16 = CLOSED_SHELL('',(#17,#50,#93,#152,#215,#271,#327,#376,#421,#459,
    #483,#521,#559,#576,#587,#599,#610,#621,#632,#644,#655));
#17 = ADVANCED_FACE('',(#18),#45,.T.);
#18 = FACE_BOUND('',#19,.T.);
#19 = EDGE_LOOP('',(#20,#29,#37,#44));
#20 = ORIENTED_EDGE('',*,*,#21,.F.);
#21 = EDGE_CURVE('',#22,#22,#24,.T.);
#22 = VERTEX_POINT('',#23);
#23 = CARTESIAN_POINT('',(442.,-2.939152317954E-15,85.));
#24 = CIRCLE('',#25,12.);
#25 = AXIS2_PLACEMENT_3D('',#26,#27,#28);
#26 = CARTESIAN_POINT('',(430.,0.,85.));
#27 = DIRECTION('',(0.,0.,1.));
#28 = DIRECTION('',(1.,0.,0.));
#29 = ORIENTED_EDGE('',*,*,#30,.F.);
#30 = EDGE_CURVE('',#31,#22,#33,.T.);
#31 = VERTEX_POINT('',#32);
#32 = CARTESIAN_POINT('',(442.,-2.939152317954E-15,47.));
#33 = LINE('',#34,#35);
#34 = CARTESIAN_POINT('',(442.,-2.939152317954E-15,47.));
#35 = VECTOR('',#36,1.);
#36 = DIRECTION('',(0.,0.,1.));
#37 = ORIENTED_EDGE('',*,*,#38,.T.);
#38 = EDGE_CURVE('',#31,#31,#39,.T.);
#39 = CIRCLE('',#40,12.);
#40 = AXIS2_PLACEMENT_3D('',#41,#42,#43);
#41 = CARTESIAN_POINT('',(430.,0.,47.));
#42 = DIRECTION('',(0.,0.,1.));
#43 = DIRECTION('',(1.,0.,0.));
#44 = ORIENTED_EDGE('',*,*,#30,.T.);
#45 = CYLINDRICAL_SURFACE('',#46,12.);
#46 = AXIS2_PLACEMENT_3D('',#47,#48,#49);
#47 = CARTESIAN_POINT('',(430.,0.,47.));
#48 = DIRECTION('',(0.,0.,1.));
#49 = DIRECTION('',(1.,0.,0.));
#50 = ADVANCED_FACE('',(#51,#54),#88,.T.);
#51 = FACE_BOUND('',#52,.T.);
#52 = EDGE_LOOP('',(#53));
#53 = ORIENTED_EDGE('',*,*,#21,.T.);
#54 = FACE_BOUND('',#55,.T.);
#55 = EDGE_LOOP('',(#56,#66,#74,#82));
#56 = ORIENTED_EDGE('',*,*,#57,.T.);
#57 = EDGE_CURVE('',#58,#60,#62,.T.);
#58 = VERTEX_POINT('',#59);
#59 = CARTESIAN_POINT('',(436.35,6.35,85.));
#60 = VERTEX_POINT('',#61);
#61 = CARTESIAN_POINT('',(436.35,-6.35,85.));
#62 = LINE('',#63,#64);
#63 = CARTESIAN_POINT('',(436.35,-3.175,85.));
#64 = VECTOR('',#65,1.);
#65 = DIRECTION('',(0.,-1.,0.));
#66 = ORIENTED_EDGE('',*,*,#67,.T.);
#67 = EDGE_CURVE('',#60,#68,#70,.T.);
#68 = VERTEX_POINT('',#69);
#69 = CARTESIAN_POINT('',(423.65,-6.35,85.));
#70 = LINE('',#71,#72);
#71 = CARTESIAN_POINT('',(426.825,-6.35,85.));
#72 = VECTOR('',#73,1.);
#73 = DIRECTION('',(-1.,0.,0.));
#74 = ORIENTED_EDGE('',*,*,#75,.T.);
#75 = EDGE_CURVE('',#68,#76,#78,.T.);
#76 = VERTEX_POINT('',#77);
#77 = CARTESIAN_POINT('',(423.65,6.35,85.));
#78 = LINE('',#79,#80);
#79 = CARTESIAN_POINT('',(423.65,3.175,85.));
#80 = VECTOR('',#81,1.);
#81 = DIRECTION('',(0.,1.,0.));
#82 = ORIENTED_EDGE('',*,*,#83,.T.);
#83 = EDGE_CURVE('',#76,#58,#84,.T.);
#84 = LINE('',#85,#86);
#85 = CARTESIAN_POINT('',(433.175,6.35,85.));
#86 = VECTOR('',#87,1.);
#87 = DIRECTION('',(1.,0.,0.));
#88 = PLANE('',#89);
#89 = AXIS2_PLACEMENT_3D('',#90,#91,#92);
#90 = CARTESIAN_POINT('',(430.,0.,85.));
#91 = DIRECTION('',(0.,0.,1.));
#92 = DIRECTION('',(1.,0.,0.));
#93 = ADVANCED_FACE('',(#94,#97),#147,.F.);
#94 = FACE_BOUND('',#95,.F.);
#95 = EDGE_LOOP('',(#96));
#96 = ORIENTED_EDGE('',*,*,#38,.T.);
#97 = FACE_BOUND('',#98,.F.);
#98 = EDGE_LOOP('',(#99,#109,#117,#125,#133,#141));
#99 = ORIENTED_EDGE('',*,*,#100,.F.);
#100 = EDGE_CURVE('',#101,#103,#105,.T.);
#101 = VERTEX_POINT('',#102);
#102 = CARTESIAN_POINT('',(438.5,4.907477288112,47.));
#103 = VERTEX_POINT('',#104);
#104 = CARTESIAN_POINT('',(430.,9.814954576224,47.));
#105 = LINE('',#106,#107);
#106 = CARTESIAN_POINT('',(438.5,4.907477288112,47.));
#107 = VECTOR('',#108,1.);
#108 = DIRECTION('',(-0.866025403784,0.5,0.));
#109 = ORIENTED_EDGE('',*,*,#110,.F.);
#110 = EDGE_CURVE('',#111,#101,#113,.T.);
#111 = VERTEX_POINT('',#112);
#112 = CARTESIAN_POINT('',(438.5,-4.907477288112,47.));
#113 = LINE('',#114,#115);
#114 = CARTESIAN_POINT('',(438.5,-4.907477288112,47.));
#115 = VECTOR('',#116,1.);
#116 = DIRECTION('',(-1.809847234243E-16,1.,0.));
#117 = ORIENTED_EDGE('',*,*,#118,.F.);
#118 = EDGE_CURVE('',#119,#111,#121,.T.);
#119 = VERTEX_POINT('',#120);
#120 = CARTESIAN_POINT('',(430.,-9.814954576224,47.));
#121 = LINE('',#122,#123);
#122 = CARTESIAN_POINT('',(430.,-9.814954576224,47.));
#123 = VECTOR('',#124,1.);
#124 = DIRECTION('',(0.866025403784,0.5,0.));
#125 = ORIENTED_EDGE('',*,*,#126,.F.);
#126 = EDGE_CURVE('',#127,#119,#129,.T.);
#127 = VERTEX_POINT('',#128);
#128 = CARTESIAN_POINT('',(421.5,-4.907477288112,47.));
#129 = LINE('',#130,#131);
#130 = CARTESIAN_POINT('',(421.5,-4.907477288112,47.));
#131 = VECTOR('',#132,1.);
#132 = DIRECTION('',(0.866025403784,-0.5,0.));
#133 = ORIENTED_EDGE('',*,*,#134,.F.);
#134 = EDGE_CURVE('',#135,#127,#137,.T.);
#135 = VERTEX_POINT('',#136);
#136 = CARTESIAN_POINT('',(421.5,4.907477288112,47.));
#137 = LINE('',#138,#139);
#138 = CARTESIAN_POINT('',(421.5,4.907477288112,47.));
#139 = VECTOR('',#140,1.);
#140 = DIRECTION('',(-3.619694468487E-16,-1.,0.));
#141 = ORIENTED_EDGE('',*,*,#142,.F.);
#142 = EDGE_CURVE('',#103,#135,#143,.T.);
#143 = LINE('',#144,#145);
#144 = CARTESIAN_POINT('',(430.,9.814954576224,47.));
#145 = VECTOR('',#146,1.);
#146 = DIRECTION('',(-0.866025403784,-0.5,0.));
#147 = PLANE('',#148);
#148 = AXIS2_PLACEMENT_3D('',#149,#150,#151);
#149 = CARTESIAN_POINT('',(430.,0.,47.));
#150 = DIRECTION('',(0.,0.,1.));
#151 = DIRECTION('',(1.,0.,0.));
#152 = ADVANCED_FACE('',(#153),#210,.T.);
#153 = FACE_BOUND('',#154,.T.);
#154 = EDGE_LOOP('',(#155,#165,#171,#172,#180,#188,#196,#204));
#155 = ORIENTED_EDGE('',*,*,#156,.F.);
#156 = EDGE_CURVE('',#157,#159,#161,.T.);
#157 = VERTEX_POINT('',#158);
#158 = CARTESIAN_POINT('',(436.35,-6.35,60.));
#159 = VERTEX_POINT('',#160);
#160 = CARTESIAN_POINT('',(436.35,-6.14878036687,60.));
#161 = LINE('',#162,#163);
#162 = CARTESIAN_POINT('',(436.35,-6.35,60.));
#163 = VECTOR('',#164,1.);
#164 = DIRECTION('',(0.,1.,0.));
#165 = ORIENTED_EDGE('',*,*,#166,.T.);
#166 = EDGE_CURVE('',#157,#60,#167,.T.);
#167 = LINE('',#168,#169);
#168 = CARTESIAN_POINT('',(436.35,-6.35,60.));
#169 = VECTOR('',#170,1.);
#170 = DIRECTION('',(0.,0.,1.));
#171 = ORIENTED_EDGE('',*,*,#57,.F.);
#172 = ORIENTED_EDGE('',*,*,#173,.F.);
#173 = EDGE_CURVE('',#174,#58,#176,.T.);
#174 = VERTEX_POINT('',#175);
#175 = CARTESIAN_POINT('',(436.35,6.35,60.));
#176 = LINE('',#177,#178);
#177 = CARTESIAN_POINT('',(436.35,6.35,60.));
#178 = VECTOR('',#179,1.);
#179 = DIRECTION('',(0.,0.,1.));
#180 = ORIENTED_EDGE('',*,*,#181,.F.);
#181 = EDGE_CURVE('',#182,#174,#184,.T.);
#182 = VERTEX_POINT('',#183);
#183 = CARTESIAN_POINT('',(436.35,6.14878036687,60.));
#184 = LINE('',#185,#186);
#185 = CARTESIAN_POINT('',(436.35,-6.35,60.));
#186 = VECTOR('',#187,1.);
#187 = DIRECTION('',(0.,1.,0.));
#188 = ORIENTED_EDGE('',*,*,#189,.F.);
#189 = EDGE_CURVE('',#190,#182,#192,.T.);
#190 = VERTEX_POINT('',#191);
#191 = CARTESIAN_POINT('',(436.35,6.14878036687,62.));
#192 = LINE('',#193,#194);
#193 = CARTESIAN_POINT('',(436.35,6.14878036687,53.5));
#194 = VECTOR('',#195,1.);
#195 = DIRECTION('',(0.,0.,-1.));
#196 = ORIENTED_EDGE('',*,*,#197,.T.);
#197 = EDGE_CURVE('',#190,#198,#200,.T.);
#198 = VERTEX_POINT('',#199);
#199 = CARTESIAN_POINT('',(436.35,-6.14878036687,62.));
#200 = LINE('',#201,#202);
#201 = CARTESIAN_POINT('',(436.35,-3.175,62.));
#202 = VECTOR('',#203,1.);
#203 = DIRECTION('',(0.,-1.,0.));
#204 = ORIENTED_EDGE('',*,*,#205,.F.);
#205 = EDGE_CURVE('',#159,#198,#206,.T.);
#206 = LINE('',#207,#208);
#207 = CARTESIAN_POINT('',(436.35,-6.14878036687,53.5));
#208 = VECTOR('',#209,1.);
#209 = DIRECTION('',(0.,0.,1.));
#210 = PLANE('',#211);
#211 = AXIS2_PLACEMENT_3D('',#212,#213,#214);
#212 = CARTESIAN_POINT('',(436.35,-6.35,60.));
#213 = DIRECTION('',(-1.,0.,0.));
#214 = DIRECTION('',(0.,1.,0.));
#215 = ADVANCED_FACE('',(#216),#266,.T.);
#216 = FACE_BOUND('',#217,.T.);
#217 = EDGE_LOOP('',(#218,#226,#227,#228,#236,#244,#252,#260));
#218 = ORIENTED_EDGE('',*,*,#219,.F.);
#219 = EDGE_CURVE('',#174,#220,#222,.T.);
#220 = VERTEX_POINT('',#221);
#221 = CARTESIAN_POINT('',(436.00147737193,6.35,60.));
#222 = LINE('',#223,#224);
#223 = CARTESIAN_POINT('',(436.35,6.35,60.));
#224 = VECTOR('',#225,1.);
#225 = DIRECTION('',(-1.,0.,0.));
#226 = ORIENTED_EDGE('',*,*,#173,.T.);
#227 = ORIENTED_EDGE('',*,*,#83,.F.);
#228 = ORIENTED_EDGE('',*,*,#229,.F.);
#229 = EDGE_CURVE('',#230,#76,#232,.T.);
#230 = VERTEX_POINT('',#231);
#231 = CARTESIAN_POINT('',(423.65,6.35,60.));
#232 = LINE('',#233,#234);
#233 = CARTESIAN_POINT('',(423.65,6.35,60.));
#234 = VECTOR('',#235,1.);
#235 = DIRECTION('',(0.,0.,1.));
#236 = ORIENTED_EDGE('',*,*,#237,.F.);
#237 = EDGE_CURVE('',#238,#230,#240,.T.);
#238 = VERTEX_POINT('',#239);
#239 = CARTESIAN_POINT('',(423.99852262806,6.35,60.));
#240 = LINE('',#241,#242);
#241 = CARTESIAN_POINT('',(436.35,6.35,60.));
#242 = VECTOR('',#243,1.);
#243 = DIRECTION('',(-1.,0.,0.));
#244 = ORIENTED_EDGE('',*,*,#245,.F.);
#245 = EDGE_CURVE('',#246,#238,#248,.T.);
#246 = VERTEX_POINT('',#247);
#247 = CARTESIAN_POINT('',(423.99852262806,6.35,62.));
#248 = LINE('',#249,#250);
#249 = CARTESIAN_POINT('',(423.99852262806,6.35,53.5));
#250 = VECTOR('',#251,1.);
#251 = DIRECTION('',(0.,0.,-1.));
#252 = ORIENTED_EDGE('',*,*,#253,.T.);
#253 = EDGE_CURVE('',#246,#254,#256,.T.);
#254 = VERTEX_POINT('',#255);
#255 = CARTESIAN_POINT('',(436.00147737193,6.35,62.));
#256 = LINE('',#257,#258);
#257 = CARTESIAN_POINT('',(433.175,6.35,62.));
#258 = VECTOR('',#259,1.);
#259 = DIRECTION('',(1.,0.,0.));
#260 = ORIENTED_EDGE('',*,*,#261,.F.);
#261 = EDGE_CURVE('',#220,#254,#262,.T.);
#262 = LINE('',#263,#264);
#263 = CARTESIAN_POINT('',(436.00147737193,6.35,53.5));
#264 = VECTOR('',#265,1.);
#265 = DIRECTION('',(0.,0.,1.));
#266 = PLANE('',#267);
#267 = AXIS2_PLACEMENT_3D('',#268,#269,#270);
#268 = CARTESIAN_POINT('',(436.35,6.35,60.));
#269 = DIRECTION('',(0.,-1.,0.));
#270 = DIRECTION('',(-1.,0.,0.));
#271 = ADVANCED_FACE('',(#272),#322,.T.);
#272 = FACE_BOUND('',#273,.T.);
#273 = EDGE_LOOP('',(#274,#282,#283,#284,#292,#300,#308,#316));
#274 = ORIENTED_EDGE('',*,*,#275,.F.);
#275 = EDGE_CURVE('',#230,#276,#278,.T.);
#276 = VERTEX_POINT('',#277);
#277 = CARTESIAN_POINT('',(423.65,6.14878036687,60.));
#278 = LINE('',#279,#280);
#279 = CARTESIAN_POINT('',(423.65,6.35,60.));
#280 = VECTOR('',#281,1.);
#281 = DIRECTION('',(0.,-1.,0.));
#282 = ORIENTED_EDGE('',*,*,#229,.T.);
#283 = ORIENTED_EDGE('',*,*,#75,.F.);
#284 = ORIENTED_EDGE('',*,*,#285,.F.);
#285 = EDGE_CURVE('',#286,#68,#288,.T.);
#286 = VERTEX_POINT('',#287);
#287 = CARTESIAN_POINT('',(423.65,-6.35,60.));
#288 = LINE('',#289,#290);
#289 = CARTESIAN_POINT('',(423.65,-6.35,60.));
#290 = VECTOR('',#291,1.);
#291 = DIRECTION('',(0.,0.,1.));
#292 = ORIENTED_EDGE('',*,*,#293,.F.);
#293 = EDGE_CURVE('',#294,#286,#296,.T.);
#294 = VERTEX_POINT('',#295);
#295 = CARTESIAN_POINT('',(423.65,-6.14878036687,60.));
#296 = LINE('',#297,#298);
#297 = CARTESIAN_POINT('',(423.65,6.35,60.));
#298 = VECTOR('',#299,1.);
#299 = DIRECTION('',(0.,-1.,0.));
#300 = ORIENTED_EDGE('',*,*,#301,.F.);
#301 = EDGE_CURVE('',#302,#294,#304,.T.);
#302 = VERTEX_POINT('',#303);
#303 = CARTESIAN_POINT('',(423.65,-6.14878036687,62.));
#304 = LINE('',#305,#306);
#305 = CARTESIAN_POINT('',(423.65,-6.14878036687,53.5));
#306 = VECTOR('',#307,1.);
#307 = DIRECTION('',(0.,0.,-1.));
#308 = ORIENTED_EDGE('',*,*,#309,.T.);
#309 = EDGE_CURVE('',#302,#310,#312,.T.);
#310 = VERTEX_POINT('',#311);
#311 = CARTESIAN_POINT('',(423.65,6.14878036687,62.));
#312 = LINE('',#313,#314);
#313 = CARTESIAN_POINT('',(423.65,3.175,62.));
#314 = VECTOR('',#315,1.);
#315 = DIRECTION('',(0.,1.,0.));
#316 = ORIENTED_EDGE('',*,*,#317,.F.);
#317 = EDGE_CURVE('',#276,#310,#318,.T.);
#318 = LINE('',#319,#320);
#319 = CARTESIAN_POINT('',(423.65,6.14878036687,53.5));
#320 = VECTOR('',#321,1.);
#321 = DIRECTION('',(0.,0.,1.));
#322 = PLANE('',#323);
#323 = AXIS2_PLACEMENT_3D('',#324,#325,#326);
#324 = CARTESIAN_POINT('',(423.65,6.35,60.));
#325 = DIRECTION('',(1.,0.,0.));
#326 = DIRECTION('',(0.,-1.,0.));
#327 = ADVANCED_FACE('',(#328),#371,.T.);
#328 = FACE_BOUND('',#329,.T.);
#329 = EDGE_LOOP('',(#330,#338,#339,#340,#341,#349,#357,#365));
#330 = ORIENTED_EDGE('',*,*,#331,.F.);
#331 = EDGE_CURVE('',#286,#332,#334,.T.);
#332 = VERTEX_POINT('',#333);
#333 = CARTESIAN_POINT('',(423.99852262806,-6.35,60.));
#334 = LINE('',#335,#336);
#335 = CARTESIAN_POINT('',(423.65,-6.35,60.));
#336 = VECTOR('',#337,1.);
#337 = DIRECTION('',(1.,0.,0.));
#338 = ORIENTED_EDGE('',*,*,#285,.T.);
#339 = ORIENTED_EDGE('',*,*,#67,.F.);
#340 = ORIENTED_EDGE('',*,*,#166,.F.);
#341 = ORIENTED_EDGE('',*,*,#342,.F.);
#342 = EDGE_CURVE('',#343,#157,#345,.T.);
#343 = VERTEX_POINT('',#344);
#344 = CARTESIAN_POINT('',(436.00147737193,-6.35,60.));
#345 = LINE('',#346,#347);
#346 = CARTESIAN_POINT('',(423.65,-6.35,60.));
#347 = VECTOR('',#348,1.);
#348 = DIRECTION('',(1.,0.,0.));
#349 = ORIENTED_EDGE('',*,*,#350,.F.);
#350 = EDGE_CURVE('',#351,#343,#353,.T.);
#351 = VERTEX_POINT('',#352);
#352 = CARTESIAN_POINT('',(436.00147737193,-6.35,62.));
#353 = LINE('',#354,#355);
#354 = CARTESIAN_POINT('',(436.00147737193,-6.35,53.5));
#355 = VECTOR('',#356,1.);
#356 = DIRECTION('',(0.,0.,-1.));
#357 = ORIENTED_EDGE('',*,*,#358,.T.);
#358 = EDGE_CURVE('',#351,#359,#361,.T.);
#359 = VERTEX_POINT('',#360);
#360 = CARTESIAN_POINT('',(423.99852262806,-6.35,62.));
#361 = LINE('',#362,#363);
#362 = CARTESIAN_POINT('',(426.825,-6.35,62.));
#363 = VECTOR('',#364,1.);
#364 = DIRECTION('',(-1.,0.,0.));
#365 = ORIENTED_EDGE('',*,*,#366,.F.);
#366 = EDGE_CURVE('',#332,#359,#367,.T.);
#367 = LINE('',#368,#369);
#368 = CARTESIAN_POINT('',(423.99852262806,-6.35,53.5));
#369 = VECTOR('',#370,1.);
#370 = DIRECTION('',(0.,0.,1.));
#371 = PLANE('',#372);
#372 = AXIS2_PLACEMENT_3D('',#373,#374,#375);
#373 = CARTESIAN_POINT('',(423.65,-6.35,60.));
#374 = DIRECTION('',(0.,1.,0.));
#375 = DIRECTION('',(1.,0.,0.));
#376 = ADVANCED_FACE('',(#377),#416,.T.);
#377 = FACE_BOUND('',#378,.T.);
#378 = EDGE_LOOP('',(#379,#380,#388,#394,#395,#401,#402,#410));
#379 = ORIENTED_EDGE('',*,*,#100,.F.);
#380 = ORIENTED_EDGE('',*,*,#381,.T.);
#381 = EDGE_CURVE('',#101,#382,#384,.T.);
#382 = VERTEX_POINT('',#383);
#383 = CARTESIAN_POINT('',(438.5,4.907477288112,62.));
#384 = LINE('',#385,#386);
#385 = CARTESIAN_POINT('',(438.5,4.907477288112,47.));
#386 = VECTOR('',#387,1.);
#387 = DIRECTION('',(0.,0.,1.));
#388 = ORIENTED_EDGE('',*,*,#389,.T.);
#389 = EDGE_CURVE('',#382,#190,#390,.T.);
#390 = LINE('',#391,#392);
#391 = CARTESIAN_POINT('',(438.5,4.907477288112,62.));
#392 = VECTOR('',#393,1.);
#393 = DIRECTION('',(-0.866025403784,0.5,0.));
#394 = ORIENTED_EDGE('',*,*,#189,.T.);
#395 = ORIENTED_EDGE('',*,*,#396,.T.);
#396 = EDGE_CURVE('',#182,#220,#397,.T.);
#397 = LINE('',#398,#399);
#398 = CARTESIAN_POINT('',(436.375,6.13434661014,60.));
#399 = VECTOR('',#400,1.);
#400 = DIRECTION('',(-0.866025403784,0.5,0.));
#401 = ORIENTED_EDGE('',*,*,#261,.T.);
#402 = ORIENTED_EDGE('',*,*,#403,.T.);
#403 = EDGE_CURVE('',#254,#404,#406,.T.);
#404 = VERTEX_POINT('',#405);
#405 = CARTESIAN_POINT('',(430.,9.814954576224,62.));
#406 = LINE('',#407,#408);
#407 = CARTESIAN_POINT('',(438.5,4.907477288112,62.));
#408 = VECTOR('',#409,1.);
#409 = DIRECTION('',(-0.866025403784,0.5,0.));
#410 = ORIENTED_EDGE('',*,*,#411,.F.);
#411 = EDGE_CURVE('',#103,#404,#412,.T.);
#412 = LINE('',#413,#414);
#413 = CARTESIAN_POINT('',(430.,9.814954576224,47.));
#414 = VECTOR('',#415,1.);
#415 = DIRECTION('',(0.,0.,1.));
#416 = PLANE('',#417);
#417 = AXIS2_PLACEMENT_3D('',#418,#419,#420);
#418 = CARTESIAN_POINT('',(438.5,4.907477288112,47.));
#419 = DIRECTION('',(-0.5,-0.866025403784,0.));
#420 = DIRECTION('',(-0.866025403784,0.5,0.));
#421 = ADVANCED_FACE('',(#422),#454,.T.);
#422 = FACE_BOUND('',#423,.T.);
#423 = EDGE_LOOP('',(#424,#425,#426,#432,#433,#439,#440,#448));
#424 = ORIENTED_EDGE('',*,*,#142,.F.);
#425 = ORIENTED_EDGE('',*,*,#411,.T.);
#426 = ORIENTED_EDGE('',*,*,#427,.T.);
#427 = EDGE_CURVE('',#404,#246,#428,.T.);
#428 = LINE('',#429,#430);
#429 = CARTESIAN_POINT('',(430.,9.814954576224,62.));
#430 = VECTOR('',#431,1.);
#431 = DIRECTION('',(-0.866025403784,-0.5,0.));
#432 = ORIENTED_EDGE('',*,*,#245,.T.);
#433 = ORIENTED_EDGE('',*,*,#434,.T.);
#434 = EDGE_CURVE('',#238,#276,#435,.T.);
#435 = LINE('',#436,#437);
#436 = CARTESIAN_POINT('',(427.875,8.588085254196,60.));
#437 = VECTOR('',#438,1.);
#438 = DIRECTION('',(-0.866025403784,-0.5,0.));
#439 = ORIENTED_EDGE('',*,*,#317,.T.);
#440 = ORIENTED_EDGE('',*,*,#441,.T.);
#441 = EDGE_CURVE('',#310,#442,#444,.T.);
#442 = VERTEX_POINT('',#443);
#443 = CARTESIAN_POINT('',(421.5,4.907477288112,62.));
#444 = LINE('',#445,#446);
#445 = CARTESIAN_POINT('',(430.,9.814954576224,62.));
#446 = VECTOR('',#447,1.);
#447 = DIRECTION('',(-0.866025403784,-0.5,0.));
#448 = ORIENTED_EDGE('',*,*,#449,.F.);
#449 = EDGE_CURVE('',#135,#442,#450,.T.);
#450 = LINE('',#451,#452);
#451 = CARTESIAN_POINT('',(421.5,4.907477288112,47.));
#452 = VECTOR('',#453,1.);
#453 = DIRECTION('',(0.,0.,1.));
#454 = PLANE('',#455);
#455 = AXIS2_PLACEMENT_3D('',#456,#457,#458);
#456 = CARTESIAN_POINT('',(430.,9.814954576224,47.));
#457 = DIRECTION('',(0.5,-0.866025403784,0.));
#458 = DIRECTION('',(-0.866025403784,-0.5,0.));
#459 = ADVANCED_FACE('',(#460),#478,.T.);
#460 = FACE_BOUND('',#461,.T.);
#461 = EDGE_LOOP('',(#462,#463,#471,#477));
#462 = ORIENTED_EDGE('',*,*,#449,.T.);
#463 = ORIENTED_EDGE('',*,*,#464,.T.);
#464 = EDGE_CURVE('',#442,#465,#467,.T.);
#465 = VERTEX_POINT('',#466);
#466 = CARTESIAN_POINT('',(421.5,-4.907477288112,62.));
#467 = LINE('',#468,#469);
#468 = CARTESIAN_POINT('',(421.5,4.907477288112,62.));
#469 = VECTOR('',#470,1.);
#470 = DIRECTION('',(-3.619694468487E-16,-1.,0.));
#471 = ORIENTED_EDGE('',*,*,#472,.F.);
#472 = EDGE_CURVE('',#127,#465,#473,.T.);
#473 = LINE('',#474,#475);
#474 = CARTESIAN_POINT('',(421.5,-4.907477288112,47.));
#475 = VECTOR('',#476,1.);
#476 = DIRECTION('',(0.,0.,1.));
#477 = ORIENTED_EDGE('',*,*,#134,.F.);
#478 = PLANE('',#479);
#479 = AXIS2_PLACEMENT_3D('',#480,#481,#482);
#480 = CARTESIAN_POINT('',(421.5,4.907477288112,47.));
#481 = DIRECTION('',(1.,-3.619694468487E-16,0.));
#482 = DIRECTION('',(-3.619694468487E-16,-1.,0.));
#483 = ADVANCED_FACE('',(#484),#516,.T.);
#484 = FACE_BOUND('',#485,.T.);
#485 = EDGE_LOOP('',(#486,#487,#488,#494,#495,#501,#502,#510));
#486 = ORIENTED_EDGE('',*,*,#126,.F.);
#487 = ORIENTED_EDGE('',*,*,#472,.T.);
#488 = ORIENTED_EDGE('',*,*,#489,.T.);
#489 = EDGE_CURVE('',#465,#302,#490,.T.);
#490 = LINE('',#491,#492);
#491 = CARTESIAN_POINT('',(421.5,-4.907477288112,62.));
#492 = VECTOR('',#493,1.);
#493 = DIRECTION('',(0.866025403784,-0.5,0.));
#494 = ORIENTED_EDGE('',*,*,#301,.T.);
#495 = ORIENTED_EDGE('',*,*,#496,.T.);
#496 = EDGE_CURVE('',#294,#332,#497,.T.);
#497 = LINE('',#498,#499);
#498 = CARTESIAN_POINT('',(423.625,-6.13434661014,60.));
#499 = VECTOR('',#500,1.);
#500 = DIRECTION('',(0.866025403784,-0.5,0.));
#501 = ORIENTED_EDGE('',*,*,#366,.T.);
#502 = ORIENTED_EDGE('',*,*,#503,.T.);
#503 = EDGE_CURVE('',#359,#504,#506,.T.);
#504 = VERTEX_POINT('',#505);
#505 = CARTESIAN_POINT('',(430.,-9.814954576224,62.));
#506 = LINE('',#507,#508);
#507 = CARTESIAN_POINT('',(421.5,-4.907477288112,62.));
#508 = VECTOR('',#509,1.);
#509 = DIRECTION('',(0.866025403784,-0.5,0.));
#510 = ORIENTED_EDGE('',*,*,#511,.F.);
#511 = EDGE_CURVE('',#119,#504,#512,.T.);
#512 = LINE('',#513,#514);
#513 = CARTESIAN_POINT('',(430.,-9.814954576224,47.));
#514 = VECTOR('',#515,1.);
#515 = DIRECTION('',(0.,0.,1.));
#516 = PLANE('',#517);
#517 = AXIS2_PLACEMENT_3D('',#518,#519,#520);
#518 = CARTESIAN_POINT('',(421.5,-4.907477288112,47.));
#519 = DIRECTION('',(0.5,0.866025403784,0.));
#520 = DIRECTION('',(0.866025403784,-0.5,0.));
#521 = ADVANCED_FACE('',(#522),#554,.T.);
#522 = FACE_BOUND('',#523,.T.);
#523 = EDGE_LOOP('',(#524,#525,#526,#532,#533,#539,#540,#548));
#524 = ORIENTED_EDGE('',*,*,#118,.F.);
#525 = ORIENTED_EDGE('',*,*,#511,.T.);
#526 = ORIENTED_EDGE('',*,*,#527,.T.);
#527 = EDGE_CURVE('',#504,#351,#528,.T.);
#528 = LINE('',#529,#530);
#529 = CARTESIAN_POINT('',(430.,-9.814954576224,62.));
#530 = VECTOR('',#531,1.);
#531 = DIRECTION('',(0.866025403784,0.5,0.));
#532 = ORIENTED_EDGE('',*,*,#350,.T.);
#533 = ORIENTED_EDGE('',*,*,#534,.T.);
#534 = EDGE_CURVE('',#343,#159,#535,.T.);
#535 = LINE('',#536,#537);
#536 = CARTESIAN_POINT('',(432.125,-8.588085254196,60.));
#537 = VECTOR('',#538,1.);
#538 = DIRECTION('',(0.866025403784,0.5,0.));
#539 = ORIENTED_EDGE('',*,*,#205,.T.);
#540 = ORIENTED_EDGE('',*,*,#541,.T.);
#541 = EDGE_CURVE('',#198,#542,#544,.T.);
#542 = VERTEX_POINT('',#543);
#543 = CARTESIAN_POINT('',(438.5,-4.907477288112,62.));
#544 = LINE('',#545,#546);
#545 = CARTESIAN_POINT('',(430.,-9.814954576224,62.));
#546 = VECTOR('',#547,1.);
#547 = DIRECTION('',(0.866025403784,0.5,0.));
#548 = ORIENTED_EDGE('',*,*,#549,.F.);
#549 = EDGE_CURVE('',#111,#542,#550,.T.);
#550 = LINE('',#551,#552);
#551 = CARTESIAN_POINT('',(438.5,-4.907477288112,47.));
#552 = VECTOR('',#553,1.);
#553 = DIRECTION('',(0.,0.,1.));
#554 = PLANE('',#555);
#555 = AXIS2_PLACEMENT_3D('',#556,#557,#558);
#556 = CARTESIAN_POINT('',(430.,-9.814954576224,47.));
#557 = DIRECTION('',(-0.5,0.866025403784,0.));
#558 = DIRECTION('',(0.866025403784,0.5,0.));
#559 = ADVANCED_FACE('',(#560),#571,.T.);
#560 = FACE_BOUND('',#561,.T.);
#561 = EDGE_LOOP('',(#562,#563,#569,#570));
#562 = ORIENTED_EDGE('',*,*,#549,.T.);
#563 = ORIENTED_EDGE('',*,*,#564,.T.);
#564 = EDGE_CURVE('',#542,#382,#565,.T.);
#565 = LINE('',#566,#567);
#566 = CARTESIAN_POINT('',(438.5,-4.907477288112,62.));
#567 = VECTOR('',#568,1.);
#568 = DIRECTION('',(-1.809847234243E-16,1.,0.));
#569 = ORIENTED_EDGE('',*,*,#381,.F.);
#570 = ORIENTED_EDGE('',*,*,#110,.F.);
#571 = PLANE('',#572);
#572 = AXIS2_PLACEMENT_3D('',#573,#574,#575);
#573 = CARTESIAN_POINT('',(438.5,-4.907477288112,47.));
#574 = DIRECTION('',(-1.,-1.809847234243E-16,0.));
#575 = DIRECTION('',(-1.809847234243E-16,1.,0.));
#576 = ADVANCED_FACE('',(#577),#582,.T.);
#577 = FACE_BOUND('',#578,.T.);
#578 = EDGE_LOOP('',(#579,#580,#581));
#579 = ORIENTED_EDGE('',*,*,#534,.F.);
#580 = ORIENTED_EDGE('',*,*,#342,.T.);
#581 = ORIENTED_EDGE('',*,*,#156,.T.);
#582 = PLANE('',#583);
#583 = AXIS2_PLACEMENT_3D('',#584,#585,#586);
#584 = CARTESIAN_POINT('',(430.,-2.797412345512E-16,60.));
#585 = DIRECTION('',(0.,0.,1.));
#586 = DIRECTION('',(1.,0.,0.));
#587 = ADVANCED_FACE('',(#588),#594,.F.);
#588 = FACE_BOUND('',#589,.F.);
#589 = EDGE_LOOP('',(#590,#591,#592,#593));
#590 = ORIENTED_EDGE('',*,*,#564,.T.);
#591 = ORIENTED_EDGE('',*,*,#389,.T.);
#592 = ORIENTED_EDGE('',*,*,#197,.T.);
#593 = ORIENTED_EDGE('',*,*,#541,.T.);
#594 = PLANE('',#595);
#595 = AXIS2_PLACEMENT_3D('',#596,#597,#598);
#596 = CARTESIAN_POINT('',(430.,4.222976879901E-16,62.));
#597 = DIRECTION('',(0.,0.,1.));
#598 = DIRECTION('',(1.,0.,0.));
#599 = ADVANCED_FACE('',(#600),#605,.T.);
#600 = FACE_BOUND('',#601,.T.);
#601 = EDGE_LOOP('',(#602,#603,#604));
#602 = ORIENTED_EDGE('',*,*,#396,.F.);
#603 = ORIENTED_EDGE('',*,*,#181,.T.);
#604 = ORIENTED_EDGE('',*,*,#219,.T.);
#605 = PLANE('',#606);
#606 = AXIS2_PLACEMENT_3D('',#607,#608,#609);
#607 = CARTESIAN_POINT('',(430.,-2.797412345512E-16,60.));
#608 = DIRECTION('',(0.,0.,1.));
#609 = DIRECTION('',(1.,0.,0.));
#610 = ADVANCED_FACE('',(#611),#616,.F.);
#611 = FACE_BOUND('',#612,.F.);
#612 = EDGE_LOOP('',(#613,#614,#615));
#613 = ORIENTED_EDGE('',*,*,#253,.T.);
#614 = ORIENTED_EDGE('',*,*,#403,.T.);
#615 = ORIENTED_EDGE('',*,*,#427,.T.);
#616 = PLANE('',#617);
#617 = AXIS2_PLACEMENT_3D('',#618,#619,#620);
#618 = CARTESIAN_POINT('',(430.,4.222976879901E-16,62.));
#619 = DIRECTION('',(0.,0.,1.));
#620 = DIRECTION('',(1.,0.,0.));
#621 = ADVANCED_FACE('',(#622),#627,.T.);
#622 = FACE_BOUND('',#623,.T.);
#623 = EDGE_LOOP('',(#624,#625,#626));
#624 = ORIENTED_EDGE('',*,*,#275,.T.);
#625 = ORIENTED_EDGE('',*,*,#434,.F.);
#626 = ORIENTED_EDGE('',*,*,#237,.T.);
#627 = PLANE('',#628);
#628 = AXIS2_PLACEMENT_3D('',#629,#630,#631);
#629 = CARTESIAN_POINT('',(430.,-2.797412345512E-16,60.));
#630 = DIRECTION('',(0.,0.,1.));
#631 = DIRECTION('',(1.,0.,0.));
#632 = ADVANCED_FACE('',(#633),#639,.F.);
#633 = FACE_BOUND('',#634,.F.);
#634 = EDGE_LOOP('',(#635,#636,#637,#638));
#635 = ORIENTED_EDGE('',*,*,#309,.T.);
#636 = ORIENTED_EDGE('',*,*,#441,.T.);
#637 = ORIENTED_EDGE('',*,*,#464,.T.);
#638 = ORIENTED_EDGE('',*,*,#489,.T.);
#639 = PLANE('',#640);
#640 = AXIS2_PLACEMENT_3D('',#641,#642,#643);
#641 = CARTESIAN_POINT('',(430.,4.222976879901E-16,62.));
#642 = DIRECTION('',(0.,0.,1.));
#643 = DIRECTION('',(1.,0.,0.));
#644 = ADVANCED_FACE('',(#645),#650,.T.);
#645 = FACE_BOUND('',#646,.T.);
#646 = EDGE_LOOP('',(#647,#648,#649));
#647 = ORIENTED_EDGE('',*,*,#293,.T.);
#648 = ORIENTED_EDGE('',*,*,#331,.T.);
#649 = ORIENTED_EDGE('',*,*,#496,.F.);
#650 = PLANE('',#651);
#651 = AXIS2_PLACEMENT_3D('',#652,#653,#654);
#652 = CARTESIAN_POINT('',(430.,-2.797412345512E-16,60.));
#653 = DIRECTION('',(0.,0.,1.));
#654 = DIRECTION('',(1.,0.,0.));
#655 = ADVANCED_FACE('',(#656),#661,.F.);
#656 = FACE_BOUND('',#657,.F.);
#657 = EDGE_LOOP('',(#658,#659,#660));
#658 = ORIENTED_EDGE('',*,*,#527,.T.);
#659 = ORIENTED_EDGE('',*,*,#358,.T.);
#660 = ORIENTED_EDGE('',*,*,#503,.T.);
#661 = PLANE('',#662);
#662 = AXIS2_PLACEMENT_3D('',#663,#664,#665);
#663 = CARTESIAN_POINT('',(430.,4.222976879901E-16,62.));
#664 = DIRECTION('',(0.,0.,1.));
#665 = DIRECTION('',(1.,0.,0.));
#666 = ( GEOMETRIC_REPRESENTATION_CONTEXT(3) 
GLOBAL_UNCERTAINTY_ASSIGNED_CONTEXT((#670)) GLOBAL_UNIT_ASSIGNED_CONTEXT
((#667,#668,#669)) REPRESENTATION_CONTEXT('Context #1',
  '3D Context with UNIT and UNCERTAINTY') );
#667 = ( LENGTH_UNIT() NAMED_UNIT(*) SI_UNIT(.MILLI.,.METRE.) );
#668 = ( NAMED_UNIT(*) PLANE_ANGLE_UNIT() SI_UNIT($,.RADIAN.) );
#669 = ( NAMED_UNIT(*) SI_UNIT($,.STERADIAN.) SOLID_ANGLE_UNIT() );
#670 = UNCERTAINTY_MEASURE_WITH_UNIT(LENGTH_MEASURE(1.E-07),#667,
  'distance_accuracy_value','confusion accuracy');
#671 = PRODUCT_RELATED_PRODUCT_CATEGORY('part',$,(#7));
ENDSEC;
END-ISO-10303-21;
