ISO-10303-21;
HEADER;
FILE_DESCRIPTION(('FreeCAD Model'),'2;1');
FILE_NAME('Open CASCADE Shape Model','2026-09-26T21:45:07',('FreeCAD'),(
    'FreeCAD'),'Open CASCADE STEP processor 7.8','FreeCAD','Unknown');
FILE_SCHEMA(('AUTOMOTIVE_DESIGN { 1 0 10303 214 1 1 1 1 }'));
ENDSEC;
DATA;
#1 = APPLICATION_PROTOCOL_DEFINITION('international standard',
  'automotive_design',2000,#2);
#2 = APPLICATION_CONTEXT(
  'core data for automotive mechanical design processes');
#3 = SHAPE_DEFINITION_REPRESENTATION(#4,#10);
#4 = PRODUCT_DEFINITION_SHAPE('','',#5);
#5 = PRODUCT_DEFINITION('design','',#6,#9);
#6 = PRODUCT_DEFINITION_FORMATION('','',#7);
#7 = PRODUCT('Open CASCADE STEP translator 7.8 11',
  'Open CASCADE STEP translator 7.8 11','',(#8));
#8 = PRODUCT_CONTEXT('',#2,'mechanical');
#9 = PRODUCT_DEFINITION_CONTEXT('part definition',#2,'design');
#10 = ADVANCED_BREP_SHAPE_REPRESENTATION('',(#11,#15),#302);
#11 = AXIS2_PLACEMENT_3D('',#12,#13,#14);
#12 = CARTESIAN_POINT('',(0.,0.,0.));
#13 = DIRECTION('',(0.,0.,1.));
#14 = DIRECTION('',(1.,0.,-0.));
#15 = MANIFOLD_SOLID_BREP('',#16);
#16 = CLOSED_SHELL('',(#17,#57,#88,#119,#163,#196,#213,#230,#256,#268,
    #293));
#17 = ADVANCED_FACE('',(#18),#52,.F.);
#18 = FACE_BOUND('',#19,.F.);
#19 = EDGE_LOOP('',(#20,#30,#38,#46));
#20 = ORIENTED_EDGE('',*,*,#21,.T.);
#21 = EDGE_CURVE('',#22,#24,#26,.T.);
#22 = VERTEX_POINT('',#23);
#23 = CARTESIAN_POINT('',(438.5,4.907477288112,28.));
#24 = VERTEX_POINT('',#25);
#25 = CARTESIAN_POINT('',(438.5,4.907477288112,37.));
#26 = LINE('',#27,#28);
#27 = CARTESIAN_POINT('',(438.5,4.907477288112,28.));
#28 = VECTOR('',#29,1.);
#29 = DIRECTION('',(0.,0.,1.));
#30 = ORIENTED_EDGE('',*,*,#31,.T.);
#31 = EDGE_CURVE('',#24,#32,#34,.T.);
#32 = VERTEX_POINT('',#33);
#33 = CARTESIAN_POINT('',(430.,9.814954576224,37.));
#34 = LINE('',#35,#36);
#35 = CARTESIAN_POINT('',(438.5,4.907477288112,37.));
#36 = VECTOR('',#37,1.);
#37 = DIRECTION('',(-0.866025403784,0.5,0.));
#38 = ORIENTED_EDGE('',*,*,#39,.F.);
#39 = EDGE_CURVE('',#40,#32,#42,.T.);
#40 = VERTEX_POINT('',#41);
#41 = CARTESIAN_POINT('',(430.,9.814954576224,28.));
#42 = LINE('',#43,#44);
#43 = CARTESIAN_POINT('',(430.,9.814954576224,28.));
#44 = VECTOR('',#45,1.);
#45 = DIRECTION('',(0.,0.,1.));
#46 = ORIENTED_EDGE('',*,*,#47,.F.);
#47 = EDGE_CURVE('',#22,#40,#48,.T.);
#48 = LINE('',#49,#50);
#49 = CARTESIAN_POINT('',(438.5,4.907477288112,28.));
#50 = VECTOR('',#51,1.);
#51 = DIRECTION('',(-0.866025403784,0.5,0.));
#52 = PLANE('',#53);
#53 = AXIS2_PLACEMENT_3D('',#54,#55,#56);
#54 = CARTESIAN_POINT('',(438.5,4.907477288112,28.));
#55 = DIRECTION('',(-0.5,-0.866025403784,0.));
#56 = DIRECTION('',(-0.866025403784,0.5,0.));
#57 = ADVANCED_FACE('',(#58),#83,.F.);
#58 = FACE_BOUND('',#59,.F.);
#59 = EDGE_LOOP('',(#60,#70,#76,#77));
#60 = ORIENTED_EDGE('',*,*,#61,.T.);
#61 = EDGE_CURVE('',#62,#64,#66,.T.);
#62 = VERTEX_POINT('',#63);
#63 = CARTESIAN_POINT('',(438.5,-4.907477288112,28.));
#64 = VERTEX_POINT('',#65);
#65 = CARTESIAN_POINT('',(438.5,-4.907477288112,37.));
#66 = LINE('',#67,#68);
#67 = CARTESIAN_POINT('',(438.5,-4.907477288112,28.));
#68 = VECTOR('',#69,1.);
#69 = DIRECTION('',(0.,0.,1.));
#70 = ORIENTED_EDGE('',*,*,#71,.T.);
#71 = EDGE_CURVE('',#64,#24,#72,.T.);
#72 = LINE('',#73,#74);
#73 = CARTESIAN_POINT('',(438.5,-4.907477288112,37.));
#74 = VECTOR('',#75,1.);
#75 = DIRECTION('',(-1.809847234243E-16,1.,0.));
#76 = ORIENTED_EDGE('',*,*,#21,.F.);
#77 = ORIENTED_EDGE('',*,*,#78,.F.);
#78 = EDGE_CURVE('',#62,#22,#79,.T.);
#79 = LINE('',#80,#81);
#80 = CARTESIAN_POINT('',(438.5,-4.907477288112,28.));
#81 = VECTOR('',#82,1.);
#82 = DIRECTION('',(-1.809847234243E-16,1.,0.));
#83 = PLANE('',#84);
#84 = AXIS2_PLACEMENT_3D('',#85,#86,#87);
#85 = CARTESIAN_POINT('',(438.5,-4.907477288112,28.));
#86 = DIRECTION('',(-1.,-1.809847234243E-16,0.));
#87 = DIRECTION('',(-1.809847234243E-16,1.,0.));
#88 = ADVANCED_FACE('',(#89),#114,.F.);
#89 = FACE_BOUND('',#90,.F.);
#90 = EDGE_LOOP('',(#91,#92,#100,#108));
#91 = ORIENTED_EDGE('',*,*,#39,.T.);
#92 = ORIENTED_EDGE('',*,*,#93,.T.);
#93 = EDGE_CURVE('',#32,#94,#96,.T.);
#94 = VERTEX_POINT('',#95);
#95 = CARTESIAN_POINT('',(421.5,4.907477288112,37.));
#96 = LINE('',#97,#98);
#97 = CARTESIAN_POINT('',(430.,9.814954576224,37.));
#98 = VECTOR('',#99,1.);
#99 = DIRECTION('',(-0.866025403784,-0.5,0.));
#100 = ORIENTED_EDGE('',*,*,#101,.F.);
#101 = EDGE_CURVE('',#102,#94,#104,.T.);
#102 = VERTEX_POINT('',#103);
#103 = CARTESIAN_POINT('',(421.5,4.907477288112,28.));
#104 = LINE('',#105,#106);
#105 = CARTESIAN_POINT('',(421.5,4.907477288112,28.));
#106 = VECTOR('',#107,1.);
#107 = DIRECTION('',(0.,0.,1.));
#108 = ORIENTED_EDGE('',*,*,#109,.F.);
#109 = EDGE_CURVE('',#40,#102,#110,.T.);
#110 = LINE('',#111,#112);
#111 = CARTESIAN_POINT('',(430.,9.814954576224,28.));
#112 = VECTOR('',#113,1.);
#113 = DIRECTION('',(-0.866025403784,-0.5,0.));
#114 = PLANE('',#115);
#115 = AXIS2_PLACEMENT_3D('',#116,#117,#118);
#116 = CARTESIAN_POINT('',(430.,9.814954576224,28.));
#117 = DIRECTION('',(0.5,-0.866025403784,0.));
#118 = DIRECTION('',(-0.866025403784,-0.5,0.));
#119 = ADVANCED_FACE('',(#120,#131),#158,.T.);
#120 = FACE_BOUND('',#121,.T.);
#121 = EDGE_LOOP('',(#122));
#122 = ORIENTED_EDGE('',*,*,#123,.T.);
#123 = EDGE_CURVE('',#124,#124,#126,.T.);
#124 = VERTEX_POINT('',#125);
#125 = CARTESIAN_POINT('',(440.19607767722,-2.497318778254E-15,28.));
#126 = CIRCLE('',#127,10.196077677225);
#127 = AXIS2_PLACEMENT_3D('',#128,#129,#130);
#128 = CARTESIAN_POINT('',(430.,0.,28.));
#129 = DIRECTION('',(0.,0.,1.));
#130 = DIRECTION('',(1.,0.,0.));
#131 = FACE_BOUND('',#132,.T.);
#132 = EDGE_LOOP('',(#133,#134,#135,#143,#151,#157));
#133 = ORIENTED_EDGE('',*,*,#47,.F.);
#134 = ORIENTED_EDGE('',*,*,#78,.F.);
#135 = ORIENTED_EDGE('',*,*,#136,.F.);
#136 = EDGE_CURVE('',#137,#62,#139,.T.);
#137 = VERTEX_POINT('',#138);
#138 = CARTESIAN_POINT('',(430.,-9.814954576224,28.));
#139 = LINE('',#140,#141);
#140 = CARTESIAN_POINT('',(430.,-9.814954576224,28.));
#141 = VECTOR('',#142,1.);
#142 = DIRECTION('',(0.866025403784,0.5,0.));
#143 = ORIENTED_EDGE('',*,*,#144,.F.);
#144 = EDGE_CURVE('',#145,#137,#147,.T.);
#145 = VERTEX_POINT('',#146);
#146 = CARTESIAN_POINT('',(421.5,-4.907477288112,28.));
#147 = LINE('',#148,#149);
#148 = CARTESIAN_POINT('',(421.5,-4.907477288112,28.));
#149 = VECTOR('',#150,1.);
#150 = DIRECTION('',(0.866025403784,-0.5,0.));
#151 = ORIENTED_EDGE('',*,*,#152,.F.);
#152 = EDGE_CURVE('',#102,#145,#153,.T.);
#153 = LINE('',#154,#155);
#154 = CARTESIAN_POINT('',(421.5,4.907477288112,28.));
#155 = VECTOR('',#156,1.);
#156 = DIRECTION('',(-3.619694468487E-16,-1.,0.));
#157 = ORIENTED_EDGE('',*,*,#109,.F.);
#158 = PLANE('',#159);
#159 = AXIS2_PLACEMENT_3D('',#160,#161,#162);
#160 = CARTESIAN_POINT('',(330.,-100.,28.));
#161 = DIRECTION('',(0.,0.,1.));
#162 = DIRECTION('',(1.,0.,0.));
#163 = ADVANCED_FACE('',(#164),#191,.T.);
#164 = FACE_BOUND('',#165,.T.);
#165 = EDGE_LOOP('',(#166,#167,#168,#176,#184,#190));
#166 = ORIENTED_EDGE('',*,*,#31,.T.);
#167 = ORIENTED_EDGE('',*,*,#93,.T.);
#168 = ORIENTED_EDGE('',*,*,#169,.T.);
#169 = EDGE_CURVE('',#94,#170,#172,.T.);
#170 = VERTEX_POINT('',#171);
#171 = CARTESIAN_POINT('',(421.5,-4.907477288112,37.));
#172 = LINE('',#173,#174);
#173 = CARTESIAN_POINT('',(421.5,4.907477288112,37.));
#174 = VECTOR('',#175,1.);
#175 = DIRECTION('',(-3.619694468487E-16,-1.,0.));
#176 = ORIENTED_EDGE('',*,*,#177,.T.);
#177 = EDGE_CURVE('',#170,#178,#180,.T.);
#178 = VERTEX_POINT('',#179);
#179 = CARTESIAN_POINT('',(430.,-9.814954576224,37.));
#180 = LINE('',#181,#182);
#181 = CARTESIAN_POINT('',(421.5,-4.907477288112,37.));
#182 = VECTOR('',#183,1.);
#183 = DIRECTION('',(0.866025403784,-0.5,0.));
#184 = ORIENTED_EDGE('',*,*,#185,.T.);
#185 = EDGE_CURVE('',#178,#64,#186,.T.);
#186 = LINE('',#187,#188);
#187 = CARTESIAN_POINT('',(430.,-9.814954576224,37.));
#188 = VECTOR('',#189,1.);
#189 = DIRECTION('',(0.866025403784,0.5,0.));
#190 = ORIENTED_EDGE('',*,*,#71,.T.);
#191 = PLANE('',#192);
#192 = AXIS2_PLACEMENT_3D('',#193,#194,#195);
#193 = CARTESIAN_POINT('',(430.,4.222976879901E-16,37.));
#194 = DIRECTION('',(0.,0.,1.));
#195 = DIRECTION('',(1.,0.,0.));
#196 = ADVANCED_FACE('',(#197),#208,.F.);
#197 = FACE_BOUND('',#198,.F.);
#198 = EDGE_LOOP('',(#199,#205,#206,#207));
#199 = ORIENTED_EDGE('',*,*,#200,.T.);
#200 = EDGE_CURVE('',#137,#178,#201,.T.);
#201 = LINE('',#202,#203);
#202 = CARTESIAN_POINT('',(430.,-9.814954576224,28.));
#203 = VECTOR('',#204,1.);
#204 = DIRECTION('',(0.,0.,1.));
#205 = ORIENTED_EDGE('',*,*,#185,.T.);
#206 = ORIENTED_EDGE('',*,*,#61,.F.);
#207 = ORIENTED_EDGE('',*,*,#136,.F.);
#208 = PLANE('',#209);
#209 = AXIS2_PLACEMENT_3D('',#210,#211,#212);
#210 = CARTESIAN_POINT('',(430.,-9.814954576224,28.));
#211 = DIRECTION('',(-0.5,0.866025403784,0.));
#212 = DIRECTION('',(0.866025403784,0.5,0.));
#213 = ADVANCED_FACE('',(#214),#225,.F.);
#214 = FACE_BOUND('',#215,.F.);
#215 = EDGE_LOOP('',(#216,#217,#218,#224));
#216 = ORIENTED_EDGE('',*,*,#101,.T.);
#217 = ORIENTED_EDGE('',*,*,#169,.T.);
#218 = ORIENTED_EDGE('',*,*,#219,.F.);
#219 = EDGE_CURVE('',#145,#170,#220,.T.);
#220 = LINE('',#221,#222);
#221 = CARTESIAN_POINT('',(421.5,-4.907477288112,28.));
#222 = VECTOR('',#223,1.);
#223 = DIRECTION('',(0.,0.,1.));
#224 = ORIENTED_EDGE('',*,*,#152,.F.);
#225 = PLANE('',#226);
#226 = AXIS2_PLACEMENT_3D('',#227,#228,#229);
#227 = CARTESIAN_POINT('',(421.5,4.907477288112,28.));
#228 = DIRECTION('',(1.,-3.619694468487E-16,0.));
#229 = DIRECTION('',(-3.619694468487E-16,-1.,0.));
#230 = ADVANCED_FACE('',(#231),#251,.T.);
#231 = FACE_BOUND('',#232,.T.);
#232 = EDGE_LOOP('',(#233,#242,#243,#244));
#233 = ORIENTED_EDGE('',*,*,#234,.T.);
#234 = EDGE_CURVE('',#235,#124,#237,.T.);
#235 = VERTEX_POINT('',#236);
#236 = CARTESIAN_POINT('',(437.,-1.714505518806E-15,25.339811322281));
#237 = CIRCLE('',#238,13.6);
#238 = AXIS2_PLACEMENT_3D('',#239,#240,#241);
#239 = CARTESIAN_POINT('',(430.,0.,37.));
#240 = DIRECTION('',(-2.449293598295E-16,-1.,0.));
#241 = DIRECTION('',(1.,-2.449293598295E-16,0.));
#242 = ORIENTED_EDGE('',*,*,#123,.F.);
#243 = ORIENTED_EDGE('',*,*,#234,.F.);
#244 = ORIENTED_EDGE('',*,*,#245,.T.);
#245 = EDGE_CURVE('',#235,#235,#246,.T.);
#246 = CIRCLE('',#247,7.);
#247 = AXIS2_PLACEMENT_3D('',#248,#249,#250);
#248 = CARTESIAN_POINT('',(430.,0.,25.339811322281));
#249 = DIRECTION('',(-0.,0.,1.));
#250 = DIRECTION('',(0.,-1.,0.));
#251 = SPHERICAL_SURFACE('',#252,13.6);
#252 = AXIS2_PLACEMENT_3D('',#253,#254,#255);
#253 = CARTESIAN_POINT('',(430.,0.,37.));
#254 = DIRECTION('',(0.,0.,1.));
#255 = DIRECTION('',(1.,0.,0.));
#256 = ADVANCED_FACE('',(#257),#263,.F.);
#257 = FACE_BOUND('',#258,.F.);
#258 = EDGE_LOOP('',(#259,#260,#261,#262));
#259 = ORIENTED_EDGE('',*,*,#219,.T.);
#260 = ORIENTED_EDGE('',*,*,#177,.T.);
#261 = ORIENTED_EDGE('',*,*,#200,.F.);
#262 = ORIENTED_EDGE('',*,*,#144,.F.);
#263 = PLANE('',#264);
#264 = AXIS2_PLACEMENT_3D('',#265,#266,#267);
#265 = CARTESIAN_POINT('',(421.5,-4.907477288112,28.));
#266 = DIRECTION('',(0.5,0.866025403784,0.));
#267 = DIRECTION('',(0.866025403784,-0.5,0.));
#268 = ADVANCED_FACE('',(#269),#288,.T.);
#269 = FACE_BOUND('',#270,.T.);
#270 = EDGE_LOOP('',(#271,#272,#280,#287));
#271 = ORIENTED_EDGE('',*,*,#245,.F.);
#272 = ORIENTED_EDGE('',*,*,#273,.F.);
#273 = EDGE_CURVE('',#274,#235,#276,.T.);
#274 = VERTEX_POINT('',#275);
#275 = CARTESIAN_POINT('',(437.,-1.714505518806E-15,0.));
#276 = LINE('',#277,#278);
#277 = CARTESIAN_POINT('',(437.,-1.714505518806E-15,0.));
#278 = VECTOR('',#279,1.);
#279 = DIRECTION('',(0.,0.,1.));
#280 = ORIENTED_EDGE('',*,*,#281,.T.);
#281 = EDGE_CURVE('',#274,#274,#282,.T.);
#282 = CIRCLE('',#283,7.);
#283 = AXIS2_PLACEMENT_3D('',#284,#285,#286);
#284 = CARTESIAN_POINT('',(430.,0.,0.));
#285 = DIRECTION('',(0.,0.,1.));
#286 = DIRECTION('',(1.,0.,0.));
#287 = ORIENTED_EDGE('',*,*,#273,.T.);
#288 = CYLINDRICAL_SURFACE('',#289,7.);
#289 = AXIS2_PLACEMENT_3D('',#290,#291,#292);
#290 = CARTESIAN_POINT('',(430.,0.,0.));
#291 = DIRECTION('',(0.,0.,1.));
#292 = DIRECTION('',(1.,0.,0.));
#293 = ADVANCED_FACE('',(#294),#297,.F.);
#294 = FACE_BOUND('',#295,.T.);
#295 = EDGE_LOOP('',(#296));
#296 = ORIENTED_EDGE('',*,*,#281,.F.);
#297 = PLANE('',#298);
#298 = AXIS2_PLACEMENT_3D('',#299,#300,#301);
#299 = CARTESIAN_POINT('',(430.,0.,0.));
#300 = DIRECTION('',(0.,0.,1.));
#301 = DIRECTION('',(1.,0.,0.));
#302 = ( GEOMETRIC_REPRESENTATION_CONTEXT(3) 
GLOBAL_UNCERTAINTY_ASSIGNED_CONTEXT((#306)) GLOBAL_UNIT_ASSIGNED_CONTEXT
((#303,#304,#305)) REPRESENTATION_CONTEXT('Context #1',
  '3D Context with UNIT and UNCERTAINTY') );
#303 = ( LENGTH_UNIT() NAMED_UNIT(*) SI_UNIT(.MILLI.,.METRE.) );
#304 = ( NAMED_UNIT(*) PLANE_ANGLE_UNIT() SI_UNIT($,.RADIAN.) );
#305 = ( NAMED_UNIT(*) SI_UNIT($,.STERADIAN.) SOLID_ANGLE_UNIT() );
#306 = UNCERTAINTY_MEASURE_WITH_UNIT(LENGTH_MEASURE(1.E-07),#303,
  'distance_accuracy_value','confusion accuracy');
#307 = PRODUCT_RELATED_PRODUCT_CATEGORY('part',$,(#7));
ENDSEC;
END-ISO-10303-21;
