ISO-10303-21;
HEADER;
FILE_DESCRIPTION(('FreeCAD Model'),'2;1');
FILE_NAME('Open CASCADE Shape Model','2026-09-26T21:45:07',('FreeCAD'),(
    'FreeCAD'),'Open CASCADE STEP processor 7.8','FreeCAD','Unknown');
FILE_SCHEMA(('AUTOMOTIVE_DESIGN { 1 0 10303 214 1 1 1 1 }'));
ENDSEC;
DATA;
#1 = APPLICATION_PROTOCOL_DEFINITION('international standard',
  'automotive_design',2000,#2);
#2 = APPLICATION_CONTEXT(
  'core data for automotive mechanical design processes');
#3 = SHAPE_DEFINITION_REPRESENTATION(#4,#10);
#4 = PRODUCT_DEFINITION_SHAPE('','',#5);
#5 = PRODUCT_DEFINITION('design','',#6,#9);
#6 = PRODUCT_DEFINITION_FORMATION('','',#7);
#7 = PRODUCT('Open CASCADE STEP translator 7.8 3',
  'Open CASCADE STEP translator 7.8 3','',(#8));
#8 = PRODUCT_CONTEXT('',#2,'mechanical');
#9 = PRODUCT_DEFINITION_CONTEXT('part definition',#2,'design');
#10 = ADVANCED_BREP_SHAPE_REPRESENTATION('',(#11,#15),#540);
#11 = AXIS2_PLACEMENT_3D('',#12,#13,#14);
#12 = CARTESIAN_POINT('',(0.,0.,0.));
#13 = DIRECTION('',(0.,0.,1.));
#14 = DIRECTION('',(1.,0.,-0.));
#15 = MANIFOLD_SOLID_BREP('',#16);
#16 = CLOSED_SHELL('',(#17,#107,#182,#257,#390,#407,#424,#452,#469,#486,
    #503,#528));
#17 = ADVANCED_FACE('',(#18,#45),#102,.T.);
#18 = FACE_BOUND('',#19,.T.);
#19 = EDGE_LOOP('',(#20,#30,#37,#38));
#20 = ORIENTED_EDGE('',*,*,#21,.T.);
#21 = EDGE_CURVE('',#22,#24,#26,.T.);
#22 = VERTEX_POINT('',#23);
#23 = CARTESIAN_POINT('',(75.,8.572527594031E-15,150.));
#24 = VERTEX_POINT('',#25);
#25 = CARTESIAN_POINT('',(87.,8.572527594031E-15,150.));
#26 = LINE('',#27,#28);
#27 = CARTESIAN_POINT('',(75.,8.572527594031E-15,150.));
#28 = VECTOR('',#29,1.);
#29 = DIRECTION('',(1.,0.,0.));
#30 = ORIENTED_EDGE('',*,*,#31,.F.);
#31 = EDGE_CURVE('',#24,#24,#32,.T.);
#32 = CIRCLE('',#33,35.);
#33 = AXIS2_PLACEMENT_3D('',#34,#35,#36);
#34 = CARTESIAN_POINT('',(87.,0.,115.));
#35 = DIRECTION('',(1.,0.,0.));
#36 = DIRECTION('',(-0.,0.,1.));
#37 = ORIENTED_EDGE('',*,*,#21,.F.);
#38 = ORIENTED_EDGE('',*,*,#39,.T.);
#39 = EDGE_CURVE('',#22,#22,#40,.T.);
#40 = CIRCLE('',#41,35.);
#41 = AXIS2_PLACEMENT_3D('',#42,#43,#44);
#42 = CARTESIAN_POINT('',(75.,0.,115.));
#43 = DIRECTION('',(1.,0.,0.));
#44 = DIRECTION('',(-0.,0.,1.));
#45 = FACE_BOUND('',#46,.T.);
#46 = EDGE_LOOP('',(#47));
#47 = ORIENTED_EDGE('',*,*,#48,.T.);
#48 = EDGE_CURVE('',#49,#49,#51,.T.);
#49 = VERTEX_POINT('',#50);
#50 = CARTESIAN_POINT('',(83.1,-5.143516556419E-16,80.));
#51 = B_SPLINE_CURVE_WITH_KNOTS('',7,(#52,#53,#54,#55,#56,#57,#58,#59,
    #60,#61,#62,#63,#64,#65,#66,#67,#68,#69,#70,#71,#72,#73,#74,#75,#76,
    #77,#78,#79,#80,#81,#82,#83,#84,#85,#86,#87,#88,#89,#90,#91,#92,#93,
    #94,#95,#96,#97,#98,#99,#100,#101),.UNSPECIFIED.,.T.,.F.,(8,6,6,6,6,
    6,6,6,8),(0.,0.126752150916,0.248121999882,0.369497358082,
    0.463584193043,0.581507172259,0.686660962615,0.840671671536,1.),
  .UNSPECIFIED.);
#52 = CARTESIAN_POINT('',(83.1,-2.22044604925E-15,80.));
#53 = CARTESIAN_POINT('',(83.1,0.290713528663,80.));
#54 = CARTESIAN_POINT('',(83.053048123136,0.5729756355,80.002817156921)
  );
#55 = CARTESIAN_POINT('',(82.964054282589,0.838142843775,80.008156536432
    ));
#56 = CARTESIAN_POINT('',(82.839494760462,1.079202039085,80.015235501755
    ));
#57 = CARTESIAN_POINT('',(82.687335499833,1.290968121834,80.023011237801
    ));
#58 = CARTESIAN_POINT('',(82.516877889563,1.470585553587,80.030596535124
    ));
#59 = CARTESIAN_POINT('',(82.167873525644,1.759307072879,80.043958647338
    ));
#60 = CARTESIAN_POINT('',(81.985468959903,1.874810987596,80.049971207235
    ));
#61 = CARTESIAN_POINT('',(81.795164017807,1.965703391994,80.055074793251
    ));
#62 = CARTESIAN_POINT('',(81.599631241611,2.033050019631,80.059032520854
    ));
#63 = CARTESIAN_POINT('',(81.400869485071,2.077667640634,80.061714449777
    ));
#64 = CARTESIAN_POINT('',(81.200496452678,2.1,80.06305680229));
#65 = CARTESIAN_POINT('',(80.799494446364,2.1,80.06305680229));
#66 = CARTESIAN_POINT('',(80.599123648197,2.077665645445,80.061714330735
    ));
#67 = CARTESIAN_POINT('',(80.400367104409,2.033048405399,80.059032421455
    ));
#68 = CARTESIAN_POINT('',(80.204837377267,1.965703686472,80.05507482982)
  );
#69 = CARTESIAN_POINT('',(80.014531917129,1.874811976623,80.049971247043
    ));
#70 = CARTESIAN_POINT('',(79.832125770605,1.759306490685,80.043958620393
    ));
#71 = CARTESIAN_POINT('',(79.52907516434,1.508601225913,80.032355911012)
  );
#72 = CARTESIAN_POINT('',(79.402823223142,1.382887441634,80.026938622189
    ));
#73 = CARTESIAN_POINT('',(79.285535794085,1.240799854345,80.021378138152
    ));
#74 = CARTESIAN_POINT('',(79.180151697564,1.082652153628,80.015952862533
    ));
#75 = CARTESIAN_POINT('',(79.089677469528,0.90922219294,80.010999141956)
  );
#76 = CARTESIAN_POINT('',(79.017210634693,0.721796976729,80.006874425372
    ));
#77 = CARTESIAN_POINT('',(78.901760043482,0.272146611511,80.000164268414
    ));
#78 = CARTESIAN_POINT('',(78.872219329744,8.145173696719E-03,
    79.998310884071));
#79 = CARTESIAN_POINT('',(78.882353540834,-0.260317390798,
    79.998889212766));
#80 = CARTESIAN_POINT('',(78.932588061289,-0.522583810405,
    80.002053920241));
#81 = CARTESIAN_POINT('',(79.018955956459,-0.768323341537,
    80.007225168763));
#82 = CARTESIAN_POINT('',(79.133265648295,-0.989284334468,
    80.013461534997));
#83 = CARTESIAN_POINT('',(79.378933603613,-1.350773753247,
    80.025659705537));
#84 = CARTESIAN_POINT('',(79.509918906553,-1.501560109753,
    80.031717612588));
#85 = CARTESIAN_POINT('',(79.652384454427,-1.632918457344,
    80.037687322001));
#86 = CARTESIAN_POINT('',(79.803486694121,-1.745387153339,
    80.043264329911));
#87 = CARTESIAN_POINT('',(79.961006595977,-1.839630144244,
    80.048232052246));
#88 = CARTESIAN_POINT('',(80.123188269625,-1.916279594076,
    80.052447404004));
#89 = CARTESIAN_POINT('',(80.530990038787,-2.063097265047,
    80.060748918096));
#90 = CARTESIAN_POINT('',(80.78046010647,-2.113740303944,80.063867362935
    ));
#91 = CARTESIAN_POINT('',(81.033048027513,-2.129449410405,
    80.064880714284));
#92 = CARTESIAN_POINT('',(81.285843819419,-2.110789108845,
    80.063706347013));
#93 = CARTESIAN_POINT('',(81.535860758459,-2.057354246609,
    80.060388109774));
#94 = CARTESIAN_POINT('',(81.779580439603,-1.967843334113,
    80.055130285973));
#95 = CARTESIAN_POINT('',(82.25179892525,-1.708239024777,80.041461800287
    ));
#96 = CARTESIAN_POINT('',(82.488446572189,-1.530540860446,
    80.032689104892));
#97 = CARTESIAN_POINT('',(82.706195037254,-1.303770904305,
    80.022641983387));
#98 = CARTESIAN_POINT('',(82.890062701392,-1.0294985653,80.012595517326)
  );
#99 = CARTESIAN_POINT('',(83.025751441482,-0.713632124821,
    80.004455045557));
#100 = CARTESIAN_POINT('',(83.1,-0.365579738287,80.));
#101 = CARTESIAN_POINT('',(83.1,-2.22044604925E-15,80.));
#102 = CYLINDRICAL_SURFACE('',#103,35.);
#103 = AXIS2_PLACEMENT_3D('',#104,#105,#106);
#104 = CARTESIAN_POINT('',(75.,0.,115.));
#105 = DIRECTION('',(1.,0.,0.));
#106 = DIRECTION('',(-0.,0.,1.));
#107 = ADVANCED_FACE('',(#108,#111,#122,#133,#144,#155,#166),#177,.F.);
#108 = FACE_BOUND('',#109,.F.);
#109 = EDGE_LOOP('',(#110));
#110 = ORIENTED_EDGE('',*,*,#39,.T.);
#111 = FACE_BOUND('',#112,.F.);
#112 = EDGE_LOOP('',(#113));
#113 = ORIENTED_EDGE('',*,*,#114,.F.);
#114 = EDGE_CURVE('',#115,#115,#117,.T.);
#115 = VERTEX_POINT('',#116);
#116 = CARTESIAN_POINT('',(75.,14.81218835777,98.187771741751));
#117 = CIRCLE('',#118,3.575);
#118 = AXIS2_PLACEMENT_3D('',#119,#120,#121);
#119 = CARTESIAN_POINT('',(75.,14.81218835777,94.612771741751));
#120 = DIRECTION('',(1.,0.,0.));
#121 = DIRECTION('',(-0.,0.,1.));
#122 = FACE_BOUND('',#123,.F.);
#123 = EDGE_LOOP('',(#124));
#124 = ORIENTED_EDGE('',*,*,#125,.F.);
#125 = EDGE_CURVE('',#126,#126,#128,.T.);
#126 = VERTEX_POINT('',#127);
#127 = CARTESIAN_POINT('',(75.,23.966624210638,126.36222825824));
#128 = CIRCLE('',#129,3.575);
#129 = AXIS2_PLACEMENT_3D('',#130,#131,#132);
#130 = CARTESIAN_POINT('',(75.,23.966624210638,122.78722825824));
#131 = DIRECTION('',(1.,0.,0.));
#132 = DIRECTION('',(-0.,0.,1.));
#133 = FACE_BOUND('',#134,.F.);
#134 = EDGE_LOOP('',(#135));
#135 = ORIENTED_EDGE('',*,*,#136,.F.);
#136 = EDGE_CURVE('',#137,#137,#139,.T.);
#137 = VERTEX_POINT('',#138);
#138 = CARTESIAN_POINT('',(75.,9.797174393179E-16,119.));
#139 = CIRCLE('',#140,4.);
#140 = AXIS2_PLACEMENT_3D('',#141,#142,#143);
#141 = CARTESIAN_POINT('',(75.,0.,115.));
#142 = DIRECTION('',(1.,0.,0.));
#143 = DIRECTION('',(-0.,0.,1.));
#144 = FACE_BOUND('',#145,.F.);
#145 = EDGE_LOOP('',(#146));
#146 = ORIENTED_EDGE('',*,*,#147,.F.);
#147 = EDGE_CURVE('',#148,#148,#150,.T.);
#148 = VERTEX_POINT('',#149);
#149 = CARTESIAN_POINT('',(75.,-14.81218835777,98.187771741751));
#150 = CIRCLE('',#151,3.575);
#151 = AXIS2_PLACEMENT_3D('',#152,#153,#154);
#152 = CARTESIAN_POINT('',(75.,-14.81218835777,94.612771741751));
#153 = DIRECTION('',(1.,0.,0.));
#154 = DIRECTION('',(-0.,0.,1.));
#155 = FACE_BOUND('',#156,.F.);
#156 = EDGE_LOOP('',(#157));
#157 = ORIENTED_EDGE('',*,*,#158,.F.);
#158 = EDGE_CURVE('',#159,#159,#161,.T.);
#159 = VERTEX_POINT('',#160);
#160 = CARTESIAN_POINT('',(75.,2.418677428316E-15,143.775));
#161 = CIRCLE('',#162,3.575);
#162 = AXIS2_PLACEMENT_3D('',#163,#164,#165);
#163 = CARTESIAN_POINT('',(75.,1.543054966926E-15,140.2));
#164 = DIRECTION('',(1.,0.,0.));
#165 = DIRECTION('',(-0.,0.,1.));
#166 = FACE_BOUND('',#167,.F.);
#167 = EDGE_LOOP('',(#168));
#168 = ORIENTED_EDGE('',*,*,#169,.F.);
#169 = EDGE_CURVE('',#170,#170,#172,.T.);
#170 = VERTEX_POINT('',#171);
#171 = CARTESIAN_POINT('',(75.,-23.96662421063,126.36222825824));
#172 = CIRCLE('',#173,3.575);
#173 = AXIS2_PLACEMENT_3D('',#174,#175,#176);
#174 = CARTESIAN_POINT('',(75.,-23.96662421063,122.78722825824));
#175 = DIRECTION('',(1.,0.,0.));
#176 = DIRECTION('',(-0.,0.,1.));
#177 = PLANE('',#178);
#178 = AXIS2_PLACEMENT_3D('',#179,#180,#181);
#179 = CARTESIAN_POINT('',(75.,0.,115.));
#180 = DIRECTION('',(1.,0.,0.));
#181 = DIRECTION('',(-0.,0.,1.));
#182 = ADVANCED_FACE('',(#183,#186,#197,#208,#219,#230,#241),#252,.T.);
#183 = FACE_BOUND('',#184,.T.);
#184 = EDGE_LOOP('',(#185));
#185 = ORIENTED_EDGE('',*,*,#31,.T.);
#186 = FACE_BOUND('',#187,.T.);
#187 = EDGE_LOOP('',(#188));
#188 = ORIENTED_EDGE('',*,*,#189,.F.);
#189 = EDGE_CURVE('',#190,#190,#192,.T.);
#190 = VERTEX_POINT('',#191);
#191 = CARTESIAN_POINT('',(87.,14.81218835777,98.187771741751));
#192 = CIRCLE('',#193,3.575);
#193 = AXIS2_PLACEMENT_3D('',#194,#195,#196);
#194 = CARTESIAN_POINT('',(87.,14.81218835777,94.612771741751));
#195 = DIRECTION('',(1.,0.,0.));
#196 = DIRECTION('',(-0.,0.,1.));
#197 = FACE_BOUND('',#198,.T.);
#198 = EDGE_LOOP('',(#199));
#199 = ORIENTED_EDGE('',*,*,#200,.F.);
#200 = EDGE_CURVE('',#201,#201,#203,.T.);
#201 = VERTEX_POINT('',#202);
#202 = CARTESIAN_POINT('',(87.,23.966624210638,126.36222825824));
#203 = CIRCLE('',#204,3.575);
#204 = AXIS2_PLACEMENT_3D('',#205,#206,#207);
#205 = CARTESIAN_POINT('',(87.,23.966624210638,122.78722825824));
#206 = DIRECTION('',(1.,0.,0.));
#207 = DIRECTION('',(-0.,0.,1.));
#208 = FACE_BOUND('',#209,.T.);
#209 = EDGE_LOOP('',(#210));
#210 = ORIENTED_EDGE('',*,*,#211,.F.);
#211 = EDGE_CURVE('',#212,#212,#214,.T.);
#212 = VERTEX_POINT('',#213);
#213 = CARTESIAN_POINT('',(87.,3.109990546435E-15,127.6975));
#214 = CIRCLE('',#215,12.6975);
#215 = AXIS2_PLACEMENT_3D('',#216,#217,#218);
#216 = CARTESIAN_POINT('',(87.,0.,115.));
#217 = DIRECTION('',(1.,0.,0.));
#218 = DIRECTION('',(-0.,0.,1.));
#219 = FACE_BOUND('',#220,.T.);
#220 = EDGE_LOOP('',(#221));
#221 = ORIENTED_EDGE('',*,*,#222,.F.);
#222 = EDGE_CURVE('',#223,#223,#225,.T.);
#223 = VERTEX_POINT('',#224);
#224 = CARTESIAN_POINT('',(87.,-14.81218835777,98.187771741751));
#225 = CIRCLE('',#226,3.575);
#226 = AXIS2_PLACEMENT_3D('',#227,#228,#229);
#227 = CARTESIAN_POINT('',(87.,-14.81218835777,94.612771741751));
#228 = DIRECTION('',(1.,0.,0.));
#229 = DIRECTION('',(-0.,0.,1.));
#230 = FACE_BOUND('',#231,.T.);
#231 = EDGE_LOOP('',(#232));
#232 = ORIENTED_EDGE('',*,*,#233,.F.);
#233 = EDGE_CURVE('',#234,#234,#236,.T.);
#234 = VERTEX_POINT('',#235);
#235 = CARTESIAN_POINT('',(87.,2.418677428316E-15,143.775));
#236 = CIRCLE('',#237,3.575);
#237 = AXIS2_PLACEMENT_3D('',#238,#239,#240);
#238 = CARTESIAN_POINT('',(87.,1.543054966926E-15,140.2));
#239 = DIRECTION('',(1.,0.,0.));
#240 = DIRECTION('',(-0.,0.,1.));
#241 = FACE_BOUND('',#242,.T.);
#242 = EDGE_LOOP('',(#243));
#243 = ORIENTED_EDGE('',*,*,#244,.F.);
#244 = EDGE_CURVE('',#245,#245,#247,.T.);
#245 = VERTEX_POINT('',#246);
#246 = CARTESIAN_POINT('',(87.,-23.96662421063,126.36222825824));
#247 = CIRCLE('',#248,3.575);
#248 = AXIS2_PLACEMENT_3D('',#249,#250,#251);
#249 = CARTESIAN_POINT('',(87.,-23.96662421063,122.78722825824));
#250 = DIRECTION('',(1.,0.,0.));
#251 = DIRECTION('',(-0.,0.,1.));
#252 = PLANE('',#253);
#253 = AXIS2_PLACEMENT_3D('',#254,#255,#256);
#254 = CARTESIAN_POINT('',(87.,0.,115.));
#255 = DIRECTION('',(1.,0.,0.));
#256 = DIRECTION('',(-0.,0.,1.));
#257 = ADVANCED_FACE('',(#258),#385,.F.);
#258 = FACE_BOUND('',#259,.F.);
#259 = EDGE_LOOP('',(#260,#377,#383,#384));
#260 = ORIENTED_EDGE('',*,*,#261,.F.);
#261 = EDGE_CURVE('',#262,#262,#264,.T.);
#262 = VERTEX_POINT('',#263);
#263 = CARTESIAN_POINT('',(83.1,-5.143516556419E-16,111.));
#264 = B_SPLINE_CURVE_WITH_KNOTS('',6,(#265,#266,#267,#268,#269,#270,
    #271,#272,#273,#274,#275,#276,#277,#278,#279,#280,#281,#282,#283,
    #284,#285,#286,#287,#288,#289,#290,#291,#292,#293,#294,#295,#296,
    #297,#298,#299,#300,#301,#302,#303,#304,#305,#306,#307,#308,#309,
    #310,#311,#312,#313,#314,#315,#316,#317,#318,#319,#320,#321,#322,
    #323,#324,#325,#326,#327,#328,#329,#330,#331,#332,#333,#334,#335,
    #336,#337,#338,#339,#340,#341,#342,#343,#344,#345,#346,#347,#348,
    #349,#350,#351,#352,#353,#354,#355,#356,#357,#358,#359,#360,#361,
    #362,#363,#364,#365,#366,#367,#368,#369,#370,#371,#372,#373,#374,
    #375,#376),.UNSPECIFIED.,.T.,.F.,(7,5,5,5,5,5,5,5,5,5,5,5,5,5,5,5,5,
    5,5,5,5,5,7),(0.,6.053672441508E-02,8.740725270446E-02,
    0.120337739312,0.159273278474,0.202710210375,0.24945768603,
    0.296458557889,0.338727418898,0.412103089638,0.460538198509,
    0.499045395386,0.55982494541,0.586803260448,0.619865846178,
    0.658957573453,0.702568750595,0.749503751584,0.796693165265,
    0.839131585854,0.912801599671,0.939207350999,1.),.UNSPECIFIED.);
#265 = CARTESIAN_POINT('',(83.1,-4.440892098501E-16,111.));
#266 = CARTESIAN_POINT('',(83.1,0.159735512376,111.));
#267 = CARTESIAN_POINT('',(83.085419690998,0.318326252399,
    111.00765477188));
#268 = CARTESIAN_POINT('',(83.056651313916,0.47332003048,111.02275763451
    ));
#269 = CARTESIAN_POINT('',(83.014813749228,0.62233602836,111.04443501696
    ));
#270 = CARTESIAN_POINT('',(82.961746308471,0.763209663921,
    111.07118918329));
#271 = CARTESIAN_POINT('',(82.87279010811,0.952251212361,111.11454345296
    ));
#272 = CARTESIAN_POINT('',(82.843655046441,1.008630214748,
    111.12856763117));
#273 = CARTESIAN_POINT('',(82.812862776788,1.06325585115,111.1431777653)
  );
#274 = CARTESIAN_POINT('',(82.780537148872,1.11611631176,111.15826741265
    ));
#275 = CARTESIAN_POINT('',(82.746794710517,1.167205645264,
    111.17373404439));
#276 = CARTESIAN_POINT('',(82.668790075816,1.276964307725,
    111.20877492783));
#277 = CARTESIAN_POINT('',(82.623863878015,1.334755654324,
    111.22849269935));
#278 = CARTESIAN_POINT('',(82.577140334497,1.389931069183,
    111.24846354757));
#279 = CARTESIAN_POINT('',(82.528771028594,1.44252626031,111.26853085178
    ));
#280 = CARTESIAN_POINT('',(82.478885208113,1.492578457437,
    111.28854964294));
#281 = CARTESIAN_POINT('',(82.366941022196,1.596342995112,
    111.33183976288));
#282 = CARTESIAN_POINT('',(82.304314449006,1.649065251863,111.3550413511
    ));
#283 = CARTESIAN_POINT('',(82.239894233396,1.698344661723,
    111.37776617565));
#284 = CARTESIAN_POINT('',(82.173837002446,1.744225574167,
    111.39980548244));
#285 = CARTESIAN_POINT('',(82.106272944547,1.786743289176,
    111.42096555823));
#286 = CARTESIAN_POINT('',(81.960366979679,1.869632445697,
    111.46349212908));
#287 = CARTESIAN_POINT('',(81.881668679844,1.909194968005,
    111.48460357137));
#288 = CARTESIAN_POINT('',(81.801421474742,1.944604388474,
    111.50413155925));
#289 = CARTESIAN_POINT('',(81.719815740075,1.975854906616,
    111.52183233976));
#290 = CARTESIAN_POINT('',(81.637023331089,2.002935808414,
    111.53749326712));
#291 = CARTESIAN_POINT('',(81.462984861179,2.050461018461,
    111.56540746888));
#292 = CARTESIAN_POINT('',(81.371579657877,2.07024094275,111.57730960639
    ));
#293 = CARTESIAN_POINT('',(81.279288585387,2.085109503746,
    111.58640537723));
#294 = CARTESIAN_POINT('',(81.186406724827,2.095034394871,
    111.59252838061));
#295 = CARTESIAN_POINT('',(81.093218886097,2.1,111.59559109389));
#296 = CARTESIAN_POINT('',(80.906275817915,2.1,111.59559109389));
#297 = CARTESIAN_POINT('',(80.812583510561,2.094980416,111.59249509332)
  );
#298 = CARTESIAN_POINT('',(80.719202168644,2.084947770219,
    111.58630559531));
#299 = CARTESIAN_POINT('',(80.626421017822,2.069917964682,
    111.57711202709));
#300 = CARTESIAN_POINT('',(80.534539826717,2.04992390532,111.56508432245
    ));
#301 = CARTESIAN_POINT('',(80.362327439014,2.002629337708,
    111.53732039633));
#302 = CARTESIAN_POINT('',(80.281765880996,1.976267505418,
    111.52207945409));
#303 = CARTESIAN_POINT('',(80.202327680258,1.945956828291,
    111.50490676551));
#304 = CARTESIAN_POINT('',(80.12417164885,1.911707524882,111.4859980494)
  );
#305 = CARTESIAN_POINT('',(80.047473117215,1.873525531469,
    111.46557706565));
#306 = CARTESIAN_POINT('',(79.84214604708,1.758320197709,111.4062456359)
  );
#307 = CARTESIAN_POINT('',(79.716879144369,1.673413151148,
    111.36479910705));
#308 = CARTESIAN_POINT('',(79.597249937807,1.57653113814,111.32074112169
    ));
#309 = CARTESIAN_POINT('',(79.484180301893,1.467302071675,
    111.27540046155));
#310 = CARTESIAN_POINT('',(79.379025966232,1.34528387164,111.23034267636
    ));
#311 = CARTESIAN_POINT('',(79.220831367328,1.120925603121,
    111.15912950795));
#312 = CARTESIAN_POINT('',(79.162093843257,1.025806306946,
    111.13169514904));
#313 = CARTESIAN_POINT('',(79.108296483314,0.924891430843,
    111.10577131901));
#314 = CARTESIAN_POINT('',(79.060222594143,0.818371960033,111.0820227865
    ));
#315 = CARTESIAN_POINT('',(79.018676531386,0.706521485595,
    111.06111974847));
#316 = CARTESIAN_POINT('',(78.957323143041,0.496825443373,
    111.02986373391));
#317 = CARTESIAN_POINT('',(78.934809255576,0.400819422015,
    111.01822783557));
#318 = CARTESIAN_POINT('',(78.917524484992,0.30238330652,111.00920128771
    ));
#319 = CARTESIAN_POINT('',(78.90585285656,0.202255606238,111.00307222931
    ));
#320 = CARTESIAN_POINT('',(78.9,0.101201256358,111.));
#321 = CARTESIAN_POINT('',(78.9,-0.159735512376,111.));
#322 = CARTESIAN_POINT('',(78.914580309002,-0.318326252399,
    111.00765477188));
#323 = CARTESIAN_POINT('',(78.943348686084,-0.47332003048,
    111.02275763451));
#324 = CARTESIAN_POINT('',(78.985186250772,-0.62233602836,
    111.04443501696));
#325 = CARTESIAN_POINT('',(79.038253691529,-0.763209663921,
    111.07118918329));
#326 = CARTESIAN_POINT('',(79.127209895311,-0.952251219631,
    111.11454345462));
#327 = CARTESIAN_POINT('',(79.156344952229,-1.008630213592,
    111.12856763061));
#328 = CARTESIAN_POINT('',(79.187137219359,-1.06325584459,
    111.14317776351));
#329 = CARTESIAN_POINT('',(79.219462850317,-1.116116309368,
    111.15826741221));
#330 = CARTESIAN_POINT('',(79.253205293552,-1.16720565099,
    111.17373404621));
#331 = CARTESIAN_POINT('',(79.331209924184,-1.276964307725,
    111.20877492783));
#332 = CARTESIAN_POINT('',(79.376136121985,-1.334755654324,
    111.22849269935));
#333 = CARTESIAN_POINT('',(79.422859665503,-1.389931069183,
    111.24846354757));
#334 = CARTESIAN_POINT('',(79.471228971406,-1.44252626031,
    111.26853085178));
#335 = CARTESIAN_POINT('',(79.521114791887,-1.492578457437,
    111.28854964294));
#336 = CARTESIAN_POINT('',(79.633058977804,-1.596342995112,
    111.33183976288));
#337 = CARTESIAN_POINT('',(79.695685550994,-1.649065251863,
    111.3550413511));
#338 = CARTESIAN_POINT('',(79.760105766604,-1.698344661723,
    111.37776617565));
#339 = CARTESIAN_POINT('',(79.826162997554,-1.744225574167,
    111.39980548244));
#340 = CARTESIAN_POINT('',(79.893727055453,-1.786743289176,
    111.42096555823));
#341 = CARTESIAN_POINT('',(80.039633020321,-1.869632445697,
    111.46349212908));
#342 = CARTESIAN_POINT('',(80.118331320156,-1.909194968005,
    111.48460357137));
#343 = CARTESIAN_POINT('',(80.198578525258,-1.944604388474,
    111.50413155925));
#344 = CARTESIAN_POINT('',(80.280184259925,-1.975854906616,
    111.52183233976));
#345 = CARTESIAN_POINT('',(80.362976668911,-2.002935808414,
    111.53749326712));
#346 = CARTESIAN_POINT('',(80.537015138821,-2.050461018461,
    111.56540746888));
#347 = CARTESIAN_POINT('',(80.628420342123,-2.07024094275,
    111.57730960639));
#348 = CARTESIAN_POINT('',(80.720711414613,-2.085109503746,
    111.58640537723));
#349 = CARTESIAN_POINT('',(80.813593275173,-2.095034394871,
    111.59252838061));
#350 = CARTESIAN_POINT('',(80.906781113903,-2.1,111.59559109389));
#351 = CARTESIAN_POINT('',(81.093724182085,-2.1,111.59559109389));
#352 = CARTESIAN_POINT('',(81.187416489439,-2.094980416,111.59249509332)
  );
#353 = CARTESIAN_POINT('',(81.280797831356,-2.084947770219,
    111.58630559531));
#354 = CARTESIAN_POINT('',(81.373578982178,-2.069917964682,
    111.57711202709));
#355 = CARTESIAN_POINT('',(81.465460173283,-2.04992390532,
    111.56508432245));
#356 = CARTESIAN_POINT('',(81.637672560986,-2.002629337708,
    111.53732039633));
#357 = CARTESIAN_POINT('',(81.718234119004,-1.976267505418,
    111.52207945409));
#358 = CARTESIAN_POINT('',(81.797672319742,-1.945956828291,
    111.50490676551));
#359 = CARTESIAN_POINT('',(81.87582835115,-1.911707524882,111.4859980494
    ));
#360 = CARTESIAN_POINT('',(81.952526882785,-1.873525531469,
    111.46557706565));
#361 = CARTESIAN_POINT('',(82.15785395287,-1.758320197737,
    111.40624563591));
#362 = CARTESIAN_POINT('',(82.28312085572,-1.67341315111,111.36479910703
    ));
#363 = CARTESIAN_POINT('',(82.402750062168,-1.576531138105,
    111.32074112169));
#364 = CARTESIAN_POINT('',(82.515819698051,-1.467302071774,
    111.27540046158));
#365 = CARTESIAN_POINT('',(82.620974033809,-1.345283871582,
    111.23034267634));
#366 = CARTESIAN_POINT('',(82.750422283003,-1.161694891597,111.172070017
    ));
#367 = CARTESIAN_POINT('',(82.783317992422,-1.111557029728,
    111.15696865126));
#368 = CARTESIAN_POINT('',(82.814850359164,-1.059723387399,
    111.1422344135));
#369 = CARTESIAN_POINT('',(82.844909627822,-1.006200124766,
    111.1279636482));
#370 = CARTESIAN_POINT('',(82.873379435174,-0.950998828601,
    111.1142562347));
#371 = CARTESIAN_POINT('',(82.961738984897,-0.763225227309,
    111.07119275256));
#372 = CARTESIAN_POINT('',(83.014810078249,-0.622350530228,
    111.04443701334));
#373 = CARTESIAN_POINT('',(83.056652175757,-0.473324291142,
    111.02275719116));
#374 = CARTESIAN_POINT('',(83.085421650992,-0.318319378745,
    111.00765373917));
#375 = CARTESIAN_POINT('',(83.1,-0.159724771566,111.));
#376 = CARTESIAN_POINT('',(83.1,-4.440892098501E-16,111.));
#377 = ORIENTED_EDGE('',*,*,#378,.F.);
#378 = EDGE_CURVE('',#49,#262,#379,.T.);
#379 = LINE('',#380,#381);
#380 = CARTESIAN_POINT('',(83.1,-5.143516556419E-16,78.));
#381 = VECTOR('',#382,1.);
#382 = DIRECTION('',(0.,0.,1.));
#383 = ORIENTED_EDGE('',*,*,#48,.T.);
#384 = ORIENTED_EDGE('',*,*,#378,.T.);
#385 = CYLINDRICAL_SURFACE('',#386,2.1);
#386 = AXIS2_PLACEMENT_3D('',#387,#388,#389);
#387 = CARTESIAN_POINT('',(81.,0.,78.));
#388 = DIRECTION('',(0.,0.,1.));
#389 = DIRECTION('',(1.,0.,-0.));
#390 = ADVANCED_FACE('',(#391),#402,.F.);
#391 = FACE_BOUND('',#392,.F.);
#392 = EDGE_LOOP('',(#393,#394,#400,#401));
#393 = ORIENTED_EDGE('',*,*,#189,.F.);
#394 = ORIENTED_EDGE('',*,*,#395,.F.);
#395 = EDGE_CURVE('',#115,#190,#396,.T.);
#396 = LINE('',#397,#398);
#397 = CARTESIAN_POINT('',(70.,14.81218835777,98.187771741751));
#398 = VECTOR('',#399,1.);
#399 = DIRECTION('',(1.,0.,0.));
#400 = ORIENTED_EDGE('',*,*,#114,.T.);
#401 = ORIENTED_EDGE('',*,*,#395,.T.);
#402 = CYLINDRICAL_SURFACE('',#403,3.575);
#403 = AXIS2_PLACEMENT_3D('',#404,#405,#406);
#404 = CARTESIAN_POINT('',(70.,14.81218835777,94.612771741751));
#405 = DIRECTION('',(1.,0.,0.));
#406 = DIRECTION('',(-0.,0.,1.));
#407 = ADVANCED_FACE('',(#408),#419,.F.);
#408 = FACE_BOUND('',#409,.F.);
#409 = EDGE_LOOP('',(#410,#411,#417,#418));
#410 = ORIENTED_EDGE('',*,*,#200,.F.);
#411 = ORIENTED_EDGE('',*,*,#412,.F.);
#412 = EDGE_CURVE('',#126,#201,#413,.T.);
#413 = LINE('',#414,#415);
#414 = CARTESIAN_POINT('',(70.,23.966624210638,126.36222825824));
#415 = VECTOR('',#416,1.);
#416 = DIRECTION('',(1.,0.,0.));
#417 = ORIENTED_EDGE('',*,*,#125,.T.);
#418 = ORIENTED_EDGE('',*,*,#412,.T.);
#419 = CYLINDRICAL_SURFACE('',#420,3.575);
#420 = AXIS2_PLACEMENT_3D('',#421,#422,#423);
#421 = CARTESIAN_POINT('',(70.,23.966624210638,122.78722825824));
#422 = DIRECTION('',(1.,0.,0.));
#423 = DIRECTION('',(-0.,0.,1.));
#424 = ADVANCED_FACE('',(#425,#444),#447,.F.);
#425 = FACE_BOUND('',#426,.F.);
#426 = EDGE_LOOP('',(#427,#435,#442,#443));
#427 = ORIENTED_EDGE('',*,*,#428,.T.);
#428 = EDGE_CURVE('',#137,#429,#431,.T.);
#429 = VERTEX_POINT('',#430);
#430 = CARTESIAN_POINT('',(90.,9.797174393179E-16,119.));
#431 = LINE('',#432,#433);
#432 = CARTESIAN_POINT('',(70.,9.797174393179E-16,119.));
#433 = VECTOR('',#434,1.);
#434 = DIRECTION('',(1.,0.,0.));
#435 = ORIENTED_EDGE('',*,*,#436,.F.);
#436 = EDGE_CURVE('',#429,#429,#437,.T.);
#437 = CIRCLE('',#438,4.);
#438 = AXIS2_PLACEMENT_3D('',#439,#440,#441);
#439 = CARTESIAN_POINT('',(90.,0.,115.));
#440 = DIRECTION('',(1.,0.,0.));
#441 = DIRECTION('',(-0.,0.,1.));
#442 = ORIENTED_EDGE('',*,*,#428,.F.);
#443 = ORIENTED_EDGE('',*,*,#136,.T.);
#444 = FACE_BOUND('',#445,.F.);
#445 = EDGE_LOOP('',(#446));
#446 = ORIENTED_EDGE('',*,*,#261,.T.);
#447 = CYLINDRICAL_SURFACE('',#448,4.);
#448 = AXIS2_PLACEMENT_3D('',#449,#450,#451);
#449 = CARTESIAN_POINT('',(70.,0.,115.));
#450 = DIRECTION('',(1.,0.,0.));
#451 = DIRECTION('',(-0.,0.,1.));
#452 = ADVANCED_FACE('',(#453),#464,.F.);
#453 = FACE_BOUND('',#454,.F.);
#454 = EDGE_LOOP('',(#455,#456,#462,#463));
#455 = ORIENTED_EDGE('',*,*,#222,.F.);
#456 = ORIENTED_EDGE('',*,*,#457,.F.);
#457 = EDGE_CURVE('',#148,#223,#458,.T.);
#458 = LINE('',#459,#460);
#459 = CARTESIAN_POINT('',(70.,-14.81218835777,98.187771741751));
#460 = VECTOR('',#461,1.);
#461 = DIRECTION('',(1.,0.,0.));
#462 = ORIENTED_EDGE('',*,*,#147,.T.);
#463 = ORIENTED_EDGE('',*,*,#457,.T.);
#464 = CYLINDRICAL_SURFACE('',#465,3.575);
#465 = AXIS2_PLACEMENT_3D('',#466,#467,#468);
#466 = CARTESIAN_POINT('',(70.,-14.81218835777,94.612771741751));
#467 = DIRECTION('',(1.,0.,0.));
#468 = DIRECTION('',(-0.,0.,1.));
#469 = ADVANCED_FACE('',(#470),#481,.F.);
#470 = FACE_BOUND('',#471,.F.);
#471 = EDGE_LOOP('',(#472,#473,#479,#480));
#472 = ORIENTED_EDGE('',*,*,#233,.F.);
#473 = ORIENTED_EDGE('',*,*,#474,.F.);
#474 = EDGE_CURVE('',#159,#234,#475,.T.);
#475 = LINE('',#476,#477);
#476 = CARTESIAN_POINT('',(70.,2.418677428316E-15,143.775));
#477 = VECTOR('',#478,1.);
#478 = DIRECTION('',(1.,0.,0.));
#479 = ORIENTED_EDGE('',*,*,#158,.T.);
#480 = ORIENTED_EDGE('',*,*,#474,.T.);
#481 = CYLINDRICAL_SURFACE('',#482,3.575);
#482 = AXIS2_PLACEMENT_3D('',#483,#484,#485);
#483 = CARTESIAN_POINT('',(70.,1.543054966926E-15,140.2));
#484 = DIRECTION('',(1.,0.,0.));
#485 = DIRECTION('',(-0.,0.,1.));
#486 = ADVANCED_FACE('',(#487),#498,.F.);
#487 = FACE_BOUND('',#488,.F.);
#488 = EDGE_LOOP('',(#489,#490,#496,#497));
#489 = ORIENTED_EDGE('',*,*,#244,.F.);
#490 = ORIENTED_EDGE('',*,*,#491,.F.);
#491 = EDGE_CURVE('',#170,#245,#492,.T.);
#492 = LINE('',#493,#494);
#493 = CARTESIAN_POINT('',(70.,-23.96662421063,126.36222825824));
#494 = VECTOR('',#495,1.);
#495 = DIRECTION('',(1.,0.,0.));
#496 = ORIENTED_EDGE('',*,*,#169,.T.);
#497 = ORIENTED_EDGE('',*,*,#491,.T.);
#498 = CYLINDRICAL_SURFACE('',#499,3.575);
#499 = AXIS2_PLACEMENT_3D('',#500,#501,#502);
#500 = CARTESIAN_POINT('',(70.,-23.96662421063,122.78722825824));
#501 = DIRECTION('',(1.,0.,0.));
#502 = DIRECTION('',(-0.,0.,1.));
#503 = ADVANCED_FACE('',(#504),#523,.T.);
#504 = FACE_BOUND('',#505,.T.);
#505 = EDGE_LOOP('',(#506,#515,#521,#522));
#506 = ORIENTED_EDGE('',*,*,#507,.F.);
#507 = EDGE_CURVE('',#508,#508,#510,.T.);
#508 = VERTEX_POINT('',#509);
#509 = CARTESIAN_POINT('',(90.,3.109990546435E-15,127.6975));
#510 = CIRCLE('',#511,12.6975);
#511 = AXIS2_PLACEMENT_3D('',#512,#513,#514);
#512 = CARTESIAN_POINT('',(90.,0.,115.));
#513 = DIRECTION('',(1.,0.,0.));
#514 = DIRECTION('',(-0.,0.,1.));
#515 = ORIENTED_EDGE('',*,*,#516,.F.);
#516 = EDGE_CURVE('',#212,#508,#517,.T.);
#517 = LINE('',#518,#519);
#518 = CARTESIAN_POINT('',(87.,3.109990546435E-15,127.6975));
#519 = VECTOR('',#520,1.);
#520 = DIRECTION('',(1.,0.,0.));
#521 = ORIENTED_EDGE('',*,*,#211,.T.);
#522 = ORIENTED_EDGE('',*,*,#516,.T.);
#523 = CYLINDRICAL_SURFACE('',#524,12.6975);
#524 = AXIS2_PLACEMENT_3D('',#525,#526,#527);
#525 = CARTESIAN_POINT('',(87.,0.,115.));
#526 = DIRECTION('',(1.,0.,0.));
#527 = DIRECTION('',(-0.,0.,1.));
#528 = ADVANCED_FACE('',(#529,#532),#535,.T.);
#529 = FACE_BOUND('',#530,.T.);
#530 = EDGE_LOOP('',(#531));
#531 = ORIENTED_EDGE('',*,*,#507,.T.);
#532 = FACE_BOUND('',#533,.T.);
#533 = EDGE_LOOP('',(#534));
#534 = ORIENTED_EDGE('',*,*,#436,.F.);
#535 = PLANE('',#536);
#536 = AXIS2_PLACEMENT_3D('',#537,#538,#539);
#537 = CARTESIAN_POINT('',(90.,0.,115.));
#538 = DIRECTION('',(1.,0.,0.));
#539 = DIRECTION('',(-0.,0.,1.));
#540 = ( GEOMETRIC_REPRESENTATION_CONTEXT(3) 
GLOBAL_UNCERTAINTY_ASSIGNED_CONTEXT((#544)) GLOBAL_UNIT_ASSIGNED_CONTEXT
((#541,#542,#543)) REPRESENTATION_CONTEXT('Context #1',
  '3D Context with UNIT and UNCERTAINTY') );
#541 = ( LENGTH_UNIT() NAMED_UNIT(*) SI_UNIT(.MILLI.,.METRE.) );
#542 = ( NAMED_UNIT(*) PLANE_ANGLE_UNIT() SI_UNIT($,.RADIAN.) );
#543 = ( NAMED_UNIT(*) SI_UNIT($,.STERADIAN.) SOLID_ANGLE_UNIT() );
#544 = UNCERTAINTY_MEASURE_WITH_UNIT(LENGTH_MEASURE(1.E-07),#541,
  'distance_accuracy_value','confusion accuracy');
#545 = PRODUCT_RELATED_PRODUCT_CATEGORY('part',$,(#7));
ENDSEC;
END-ISO-10303-21;
